<mxfile host="app.diagrams.net" agent="Mozilla/5.0 (Macintosh; Intel Mac OS X 10_15_7) AppleWebKit/537.36 (KHTML, like Gecko) Chrome/141.0.0.0 Safari/537.36" version="28.2.7">
  <diagram name="Page-1" id="JuBpzU-cdnG3V-Mbpmqo">
    <mxGraphModel dx="2207" dy="896" grid="1" gridSize="10" guides="1" tooltips="1" connect="1" arrows="1" fold="1" page="1" pageScale="1" pageWidth="850" pageHeight="1100" math="0" shadow="0">
      <root>
        <mxCell id="0" />
        <mxCell id="1" parent="0" />
        <mxCell id="9qxpU1BUqiCfkzWaezKQ-1" value="" style="shape=image;verticalLabelPosition=bottom;labelBackgroundColor=default;verticalAlign=top;aspect=fixed;imageAspect=0;image=data:image/png,iVBORw0KGgoAAAANSUhEUgAABVAAAAI2CAYAAAC2dKOBAAAAAXNSR0IArs4c6QAAAERlWElmTU0AKgAAAAgAAYdpAAQAAAABAAAAGgAAAAAAA6ABAAMAAAABAAEAAKACAAQAAAABAAAFUKADAAQAAAABAAACNgAAAACOoA5OAABAAElEQVR4AezdB3yURfrA8SeNkJ5AIAkQQg+9hSJgQVRsKJ6NU//qedazoKLnFc87z3KnIGDXs5zlEAtYUBFFUQRF6b2EmpCENAjpvfxn3vBuNsluSGfLbz6fZd+dd955Z77vBuXJFI8qlYSEAAIIIIAAAggggAACCCCAAAIIIIAAAgggUE/As14OGQgggAACCCCAAAIIIIAAAggggAACCCCAAAKGAAFUvggIIIAAAggggAACCCCAAAIIIIAAAggggIAdAQKodmDIRgABBBBAAAEEEEAAAQQQQAABBBBAAAEECKDyHUAAAQQQQAABBBBAAAEEEEAAAQQQQAABBOwIEEC1A0M2AggggAACCCCAAAIIIIAAAggggAACCCBAAJXvAAIIIIAAAggggAACCCCAAAIIIIAAAgggYEeAAKodGLIRQAABBBBAAAEEEEAAAQQQQAABBBBAAAECqHwHEEAAAQQQQAABBBBAAAEEEEAAAQQQQAABOwIEUO3AkI0AAggggAACCCCAAAIIIIAAAggggAACCBBA5TuAAAIIIIAAAggggAACCCCAAAIIIIAAAgjYESCAageGbAQQQAABBBBAAAEEEEAAAQQQQAABBBBAgAAq3wEEEEAAAQQQQAABBBBAAAEEEEAAAQQQQMCOAAFUOzBkI4AAAggggAACCCCAAAIIIIAAAggggAACBFD5DiCAAAIIIIAAAggggAACCCCAAAIIIIAAAnYECKDagSEbAQQQQAABBBBAAAEEEEAAAQQQQAABBBAggMp3AAEEEEAAAQQQQAABBBBAAAEEEEAAAQQQsCNAANUODNkIIIAAAggggAACCCCAAAIIIIAAAggggAABVL4DCCCAAAIIIIAAAggggAACCCCAAAIIIICAHQECqHZgyEYAAQQQQAABBBBAAAEEEEAAAQQQQAABBAig8h1AAAEEEEAAAQQQQAABBBBAAAEEEEAAAQTsCBBAtQNDNgIIIIAAAggggAACCCCAAAIIIIAAAgggQACV7wACCCCAAAIIIIAAAggggAACCCCAAAIIIGBHgACqHRiyEUAAAQQQQAABBBBAAAEEEEAAAQQQQAABAqh8BxBAAAEEEEAAAQQQQAABBBBAAAEEEEAAATsCBFDtwJCNAAIIIIAAAggggAACCCCAAAIIIIAAAggQQOU7gAACCCCAAAIIIIAAAggggAACCCCAAAII2BEggGoHhmwEEEAAAQQQQAABBBBAAAEEEEAAAQQQQIAAKt8BBBBAAAEEEEAAAQQQQAABBBBAAAEEEEDAjgABVDswZCOAAAIIIIAAAggggAACCCCAAAIIIIAAAgRQ+Q4ggAACCCCAAAIIIIAAAggggAACCCCAAAJ2BAig2oEhGwEEEEAAAQQQQAABBBBAAAEEEEAAAQQQIIDKdwABBBBAAAEEEEAAAQQQQAABBBBAAAEEELAjQADVDgzZCCCAAAIIIIAAAggggAACCCCAAAIIIIAAAVS+AwgggAACCCCAAAIIIIAAAggggAACCCCAgB0BAqh2YMhGAAEEEEAAAQQQQAABBBBAAAEEEEAAAQQIoPIdQAABBBBAAAEEEEAAAQQQQAABBBBAAAEE7AgQQLUDQzYCCCCAAAIIIIAAAggggAACCCCAAAIIIEAAle8AAggggAACCCCAAAIIIIAAAggggAACCCBgR4AAqh0YshFAAAEEEEAAAQQQQAABBBBAAAEEEEAAAQKofAcQQAABBBBAAAEEEEAAAQQQQAABBBBAAAE7AgRQ7cCQjQACCCCAAAIIIIAAAggggAACCCCAAAIIEEDlO4AAAggggAACCCCAAAIIIIAAAggggAACCNgRIIBqB4ZsBBBAAAEEEEAAAQQQQAABBBBAAAEEEECAACrfAQQQQAABBBBAAAEEEEAAAQQQQAABBBBAwI4AAVQ7MGQjgAACCCCAAAIIIIAAAggggAACCCCAAAIEUPkOIIAAAggggAACCCCAAAIIIIAAAggggAACdgQIoNqBIRsBBBBAAAEEEEAAAQQQQAABBBBAAAEEECCAyncAAQQQQAABBBBAAAEEEEAAAQQQQAABBBCwI0AA1Q4M2QgggAACCCCAAAIIIIAAAggggAACCCCAAAFUvgMIIIAAAggggAACCCCAAAIIIIAAAggggIAdAQKodmDIRgABBBBAAAEEEEAAAQQQQAABBBBAAAEECKDyHUAAAQQQQAABBBBAAAEEEEAAAQQQQAABBOwIEEC1A0M2AggggAACCCCAAAIIIIAAAggggAACCCBAAJXvAAIIIIAAAggggAACCCCAAAIIIIAAAgggYEeAAKodGLIRQAABBBBAAAEEEEAAAQQQQAABBBBAAAECqHwHEEAAAQQQQAABBBBAAAEEEEAAAQQQQAABOwIEUO3AkI0AAggggAACCCCAAAIIIIAAAggggAACCHhDgAACCCCAAAIIIIAAAggggIAWiB46HQgEnE4gaccSp2szDUYAAecSYASqcz0vWosAAggggAACCCCAAAIIIIAAAggggAAC7SjACNR2xOZWCCCAAAIIIIAAAggggIAzCMRNvc8Zmkkb3Vxg4/Jn3VyA7iOAQHsJMAK1vaS5DwIIIIAAAggggAACCCCAAAIIIIAAAgg4nQABVKd7ZDQYAQQQQAABBBBAAAEEEEAAAQQQQAABBNpLgABqe0lzHwQQQAABBBBAAAEEEEAAAQQQQAABBBBwOgECqE73yGgwAggggAACCCCAAAIIIIAAAggggAACCLSXAAHU9pLmPggggAACCCCAAAIIIIAAAggggAACCCDgdAIEUJ3ukdFgBBBAAAEEEEAAAQQQQAABBBBAAAEEEGgvAQKo7SXNfRBAAAEEEEAAAQQQQAABBBBAAAEEEEDA6QQIoDrdI6PBCCCAAAIIIIAAAggggAACCCCAAAIIINBeAgRQ20ua+yCAAAIIIIAAAggggAACCCCAAAIIIICA0wkQQHW6R0aDEUAAAQQQQAABBBBAAAEEEEAAAQQQQKC9BAigtpc090EAAQQQQAABBBBAAAEEEEAAAQQQQAABpxMggOp0j4wGI4AAAggggAACCCCAAAIIIIAAAggggEB7CRBAbS9p7oMAAggggAACCCCAAAIIIIAAAggggAACTidAANXpHhkNRgABBBBAAAEEEEAAAQQQQAABBBBAAIH2EiCA2l7S3AcBBBBAAAEEEEAAAQQQQAABBBBAAAEEnE6AAKrTPTIajAACCCCAAAIIIIAAAggggAACCCCAAALtJeDdXjfiPggggAACCCCAAAIIIIAAAggggAACrivwwQcfSGpqqqWD3t7e0rVrV5k4caJER0db8h35oKysTJYtWyarVq0y+hIWFiaDBg2S66+/XoKDgx256bStDQUIoLYhLlUjgAACCCCAAAIIIIAAAggggAAC7iCQnp4u11xzjc2uenp6Guf+85//SEBAgM0yrZm5bt06OXr0qJxxxhkSFBTU6Kq3b98ul112mRw8eLDeNY899ph8/fXXMmrUqHrnyHB9AQKorv+M6SECCCCAAAIIIIAAAggggAACCCDQpgLFxcWW+m+//XaJjIyUnJwcWb58uezatUvee+89yc7Oli+//NJSrq0OrrjiCklOTpaPP/5YLr/88kbfRpfXwdMRI0YYI067desmP/74o7z++uuSkZEht9xyi2zcuLHR9VHQdQQIoLrOs6QnCCCAAAIIIIAAAggggAACCCCAwCkXuOeee2TIkCFGO6qqquSGG26QBQsWyNKlS2XDhg0yZsyYU95GWw2YPHmyxMbG1hpJq0fVenl5ycsvvyybNm2SvLy8Jo1qtXUf8pxPgACq8z0zWowAAggggAACCCCAAAIIIIAAAgg4hYCHh4c8+uijRgBVN3jz5s31Aqh66vzPP/8s27ZtE71uqg6+TpkyRfr371+vjzoQm5KSIn/4wx9ky5YtlnpvuukmKSgokD179hgjX/WFerTrkSNHjDqmTZsmvXr1Mo7t/aEDqLbSaaedZgRQ9Tk9irYpywLYqo885xMggOp8z4wWI4AAAggggAACCCCAAAIIIIAAAk4jEBMTY2lrZWWl5Vhv2PTII4/InDlzxDpfF/D19ZV//etfMmvWLEt5ffDEE09IfHy8ZGVlyTPPPGO5TpffvXu3rFixwlL+rbfeEv3SycfHR/TSAs1Ja9asMS7T67d27969OVVwjZMLEEB18gdI8xFAAAEEEEAAAQQQQACBlgrk5pfJwZQ8CQzrJvnHq0drtbROrkcAAQRMAb2pk5kGDhxoHsrjjz8uTz/9tPH52muvlQsvvNAYPfrOO+/I+vXr5YEHHjCm1F988cWWa8yD2bNnS4cOHYx1SYuKimTQoEGiR5lOnTrVqDc/P190nXo9U50uuOAC89JGv5eUlMiLL74or732mnHNvffeK3pDLJL7CRBAdb9nTo8RQAABBBBAAAEEEEDAjQUyjxcbwdKDyfnqXb/y5Fh2iSFSWVHhxjJ0HQEE2kJg//79lpGfemOpuLg44zbp6ekyb9484/hPf/qTPPXUU5bb6+n4Z555prFh09/+9jexFUDVgUy96ZMOmlqn888/X1544QXRAVS9mVRTNpHS9Xz33Xdy9913iw6e6o2oysvLjeoffvhheeyxx6xvxbEbCRBAdaOHTVcRQAABBBBAAAEEEEDAfQQqK6skJbNQDukgaXJedbBUBU3zi8psIoyK7SQbl6fbPEcmAggg0BQBvT5pSEiIHD582JhWr6fq64Dnm2++KYGBgUZVend7vWZpx44dRQdQrZO/v7/MnDlTbrzxRtm6davoEaZ+fn7WRYwgZ93gaa0Czfyg1zjVSwTUTXrtVb0Walvcs+69+Ox4Aow7drxnQosQQAABBBBAAAEEEEAAgRYLfPDNIbnn6XUyb8Eu+Wxlkmzbd9xu8FTf7OqpvVp8TypAAAEEtMDq1auNDZz0plBVVVVy1llniZ7Gf9FFF1mA9MhUnfr16ydhYWGWfPPAHKmqrz906JCZbXkfM2aM5bixB2effbYRyNXBXPOlN63SI03NdOWVVxqjT3Vwd+/evfLqq68a654mJibK9OnTjc2uzLK8u48AI1Dd51nTUwQQQAABBBBAAAEEEHAjgRlTe8uOAzmy62D2SXs9tG+YDOodctJyFEAAAQQaI/D2228bgdGuXbtK7969RQcp66aMjAwjS49UtZX0plBmKi0tNQ9b9B4REVFvEygvLy9jgynrivXaqvrVv39/4zV58mQZOXKkFBcXG8sOTJo0ybo4x24gUP8b7AadposIIIAAAggggAACCCCAgKsLeHl5yIM3DJb7n9kgOfkNBx9mnF+zQ7aru9A/BBBoewE9OnTIkCEN3qhHjx7G+dTUVJvlzACrPtmzZ0+bZZqa+cEHHzT1EqN8bGysjBo1Sn755Rebo2GbVSkXOZUAU/id6nHRWAQQQAABBBBAAAEEEECg8QKdgn2NIKqHh/1rBvYKkWH96k+ftX8FZxBAAIGWC/Tp08eo5ODBg7J9+/Z6FS5evNjI06NGO3XqVO98Qxl6er5O1kHYhsqf7FxlZaWkpaUZxVormHuye3LesQQIoDrW86A1CCCAAAIIIIAAAggggECrCujg6KQRXe3WefVURp/axeEEAgi0mcDUqVNFB0d1uvnmm+Xo0aOWe33++efG2qM6Y9asWZb8xh7opQN0+v7776WiosLyOtn1Z555pjz66KNiPSq2pKREHnzwQcvIUz2dn+R+AgRQ3e+Z02MEEEAAAQQQQAABBBBwE4Hyikp589N9svdwrgzpE1qv1/2ig2T0wM718slAAAEE2logMDBQnnzySfFQQ+TXr18vekr/uHHjjDVH9WZNRUVFxrT5mTNnNrkpEyZMMK5ZtGiRsQarDqguWLDgpPUcOHBA/vnPfxptGThwoJx22mnSrVs3mT9/vnGtrvfuu+8+aT0UcD0BAqiu90zpEQIIIIAAAggggAACCCAgR7OL5a8vbpG0rGKZ/8BY+fPvh0qXsI61ZK6e2qvWZz4ggAACzRXw8fExgqH6er0BU2OSHnm6bNky0WuM6o2idCB1//790qVLF7n//vuNNUc7dqz995a+j07mu637PPzww2IGUZOSkiQ7O1vMUam2ypt57777rkyZMkX0xlLx8fGydu1aycrKMpYQ0CNTv/32W5sbYpnX8+66Ah5VKrlu9+gZAggggAACCCCAAAIIIOB+Apvjj8lzC/fIxad3lyvPjbEENfapkah/fmGTms5aJb27Bcr8B8fWwokeOt34HDf1vlr5fEDAEQU2Ln/WaFbSjiWO2Dy3bFNhYaHRb39//yb3v6CgQPbu3SuRkZESFRVl93odaNWjU0NCQuyWMU+kp6cba5dGR0c3aR1V3Y/Dhw9Lfn6+xMTEGAFds07e3VPA2z27Ta8RQAABBBBAAAEEEEAAAdcTqKysksXfJcqyNUfkjzcMkSF9a0/b798zWG6+rL+89vFeuYq1T13vC0CPEDjFAs0JnJpNDggIMKbsm5/tvevRrY0d4arXWDXXWbVXn6183Q89hZ+EgClAANWU4B0BBBBAAAEEEEAAAQQQcGKBnPwymbdgpxpdKmrKfpyEBvna7M1Fk7pLnio7YVgXm+fJRAABBBBAAIHaAgRQa3vwCQEEEEAAAQQQQAABBBBwOoE9CTky592dcsbICLl+Wh/x8vRosA8zzu/V4HlOIoAAAggggECNAAHUGguOEEAAAQQQQAABBBBAAAGnE1j6U7J8tDxR7vltrIwZHO507afBCCCAAAIIOLoAAVRHf0K0DwEEEEAAAQQQQAABBBCwIVBYXC7Pv79HjmYXy5z7RkvXTn42SpGFAAIIIIAAAi0VIIDaUkGuRwABBBBAAAEEEEAAAQTaWSDhSL48/fYOGdYvVB64frT4eHu2cwu4nTMITJ8cLWePjZQjmYUy++2dztBk2ogAAgg4pAABVId8LDQKAQQQQAABBBBAAAEEELAt8MOGNHlryX655Tf95czREbYLkesUAtGRAXLr5f2kX49g6djBSzKOF8tTKjCekJLf4vZ7qnVwr5jSU4IDO0h5eWWL66MCBBBAwJ0FCKC689On7wgggAACCCCAAAIIIOA0AqVlFfKfj/dKfGKuPHn3KImOCHCatjtKQ3t1D5R7rxkkeoutlxfHy96E3FPWNG8vD3n09uHSOaSjpQ2Rnf0kNNBHAvy85cJJ3WT80HDp1iVAfHw8Je1okejNwt7/+pAczy21XGPvYPSgTkbwVJ9ftSndXjHyEUAAAQQaIUAAtRFIFEEAAQQQQAABBBBAAAEETqVA6tFCefqtHdIzKlCtdzpG/Hy9TmVznPbeOjjZu1ug0f5Owb6ntB8jB3ayBE/X7Twq3/ySIn17BElmdom89OdxEhpUu3091WhV/Zo0oqvMnLNWjmU3HESdoqbu61RRWUUA9ZQ+aW6OAAKuIEAA1RWeIn1AAAEEEEAAAQQQQAABlxVYsy1TXl0ULzPO7yUXn97DZfvpbh3rGlYz8vTdLw9IcnqhbNyVpYLkAZbg6a5D2bJ9X7aEqMDvueOjxNvL0xid+n8X9ZHnFu6xSxbg5yVjBocb57fszZLsvDK7ZTmBAAIIIHByAQKoJzeiBAIIIIAAAggggAACCCDQ7gIVFVXyv6UHZc22DPn7bSOkX3RQu7eBG7adQKB/zT/Hs3JKLDc6pkagrtyQKivWpxnBU/PEzgPZasOwIcbH2F4hZrbN9wlqlGqHExuLrdzA9H2bSGQigAACTRCo+Ru7CRdRFAEEEEAAAQQQQAABBBBAoO0EjuUUy+x3dkqQv4/MmzVWrINtbXdXaq4rEBrkIzOm9pIBMSFqLVJ/yckvlYMpebJ0dYrogKZ1ilLnL5zYTYYPCJMuoR3F29tDjh4vkS3xWfLB8kOSV1BuFO/fM0iun9ZHekVWLyWgM/9263Apr6iU+IQ8ee+rg/KsjdGlP2/NsARQ9feioTRlTPX0/aKSClm7PbOhopxDAAEEEGiEAAHURiBRBAEEEEAAAQQQQAABBBBoLwEdcHt24W65aFJ3ueq8GPHw0FsekdpbYECvYHn498PU9PkOllv7+fqJ3ujptKFd5FW1odfyX44Y58JDfeWFh8YaU+wthdVB967+xksHVe+ds14q1XqkkeH+MrxfJ+tiMrh3qPHZHDVa6+SJD0EBNUHT3AL7U/K7duoog/tU17dGBV1LyyptVUceAggggEATBAigNgGLoggggAACCCCAAAIIIIBAWwno4Nri7xJl2Zoj8uANQ2Ro3+ogWFvdj3rtC+iY9V1XDzSCp1VVVfLZyiTZHH9MoiMC5P8u6mts4vW7S/qKDlDmF5aLDm7q9Ulz1QjV5WtTZU9CjnTs4GWMXtXX6NfYIZ3VaNCjsmP/cXnr8/0yYUQXGahGtur03rKDUlZeKYfTCuw26oxREZZz8ap+e+msuJpyKzem2StGPgIIIIBAEwQIoDYBi6IIIIAAAggggAACCCCAQFsI5OaXyfz3dkmpCqLNmxUnYad4h/i26KMz1Tl+WBeJUTve6/TRt4ny/teHjONte7PFv6OXXHdhX/XuLeOGhsv369IkMbVAHv3PFtl9KEdKSmtGfB7JLDSWYNAXd+/iZ9RxPLdUlqiArG8HT0sAVX9uaKSoXsJhhhqNbKYV6p720tljq6fvH80uVsHa2ssM2LuGfAQQQACBhgUIoDbsw1kEEEAAAQQQQAABBBBAoE0F4hNzZc47O+T0kRHG2phenkzZb1PwRlTeu1vN+qTxiTnSu3vNZ+sd7fV0fp306OEt8cdr1ayDntl5pZa8AL+aKfiWzEYe3Hl1rBrlWr2UwKpNafXWXzWr6R8TLN3UEgE6rdyYLmrwLAkBBBBAoBUECKC2AiJVIIAAAggggAACCCCAAALNEVj6U4p8tDxB7p4Rq6Z4hzenCq5pA4Go8I6WWv9+6wjLcd2DIBUkNVN4mK9cfnZPGTO4s3QO6SheXq0TCL/uoj4ycXhX4zaZx4vl9U/3mbes93629fT9DfZHqda7kAwEEEAAgQYFav62b7AYJxFAAAEEEEAAAQQQQAABBFpLoLC4XF74YI9kZBXL7PtGS0Sn6pGMrVU/9bRMwFetX2qmhNR8ERsjOXXWthNT5PUmUv++e7R0CasJvOpnXFJa0aLlGKZO6CZXnVs9db+gqFz++dpWySsoN5tW610HbM8YXb3+6cHkPElOL6x1ng8IIIAAAs0XIIDafDuuRAABBBBAAAEEEEAAAQSaLJCoAnJPvb1Dhqqd0mfNHC0+3p5NroML2lYgUwW2zfTIy5vtBi3NMueO72YJnn7zS4qxZqo51f/jOZObNRpVB0PvuGKAcQu9Nu6T/93WYFA0blAnCfKvXibg+/WpZtN4RwABBBBoBQECqK2ASBUIIIAAAggggAACCCCAQGME9K7o//1sv9zym/5y5onRgo25jjLtK5B6rMhyw7PiIuXLVcmWz7YO+vSoWSP19U/2SXlF9ZDVzqEdxKMZM/nHDOks910zSDzVergVqq7Zao3cXQdybN3aknf22CjjWJdftTnDks8BAggggEDLBQigttyQGhBAAAEEEEAAAQQQQACBBgX0Duv/+The4hNy5cm7Rkn0iR3eG7yIk20qMCo2TOpu2FWldl36dXumrN1+VG6c1k86+HjK9Rf3UQHRSlmzNVPyC8ulR4S/nDYsXAarEcTPvLvTyMsrKLO09dKzesjXa45Iv55Bcu+JIKjlZCMOeqkNrB66cahl1OpPW9KNq3RQ1TodTi0wloDQeQF+3jJmUPX5zXuzJDe/pj3W13CMAAIIINA8AQKozXPjKgQQQAABBBBAAAEEEECgUQKpRwtl9ts7JVoF3ubcP0b8fGvW12xUBRRqE4HzJ3QX/bJOFZVVcvM/f5aj2SWyeEWCXHtBH/H18VJT6WONl3VZfRzg52MEUNftPCrnjKseAXqDCrzqV3PTiAFh0sFqWQc9Ala/6qbFKxJlwdKDRvbpo7paloL4YT2bR9W14jMCCCDQUgEW22mpINcjgAACCCCAAAIIIIAAAnYEflGjGf/8/GY5Z3ykzLp+CMFTO07tlZ1xvERKyirs3k7PttebMen00fJEmaNGmKZn1UznN06oP7LzSmTp6mTJPF69VqoesfrOF/ulqKSm7jK1bunqTWmyJyHbuEwHZ62Tnmqvk86vVCNfzZSTX2oeNvhuPXr27DHVm0fpjavW7Tja4HWcRAABBBBouoCHmqJQ8zd106/nCgQQQAABBBBAAAEEEEAAgToCOji24KuD8tOWDHnod0Okf3RwnRKO+TF66HSjYXFT73PMBp6iVulRw5HhfqL/8ZyTVyrHc20HOXXwNaKznxq16ilJaQXGWqh6HVM/X08pLK6Quv/69u/oJWXlVepV2eye6fv95+HTjOu/XXtEXvowvtl1OduFG5c/azQ5accSZ2s67UUAAScTYAq/kz0wmosAAggggAACCCCAAAKOLXAsp1jmvLPLWJdy/gNjJdCff3Y59hM7eev0yNJDKfknLagD50cyCmuVq1QjTAuKakamWp/UQdWWpsknRp/qen7YwPT9lnpyPQIIIGBLgP+S21IhDwEEEEAAAQQQQAABBBBohsBWtYHP/Pd2y0WTustV58WoHdibsQV7M+7LJe4rMLRfqNH5DLXUwK4DOe4LQc8RQACBNhQggNqGuFSNAAIIIIAAAggggAAC7iGgV0Zb/F2ifPXzEXlQrXVqBrXco/f08lQKvLJor0R06ihHMuuv1Xoq28W9EUAAAVcSIIDqSk+TviCAAAIIIIAAAggggEC7C+QVlMm8BbvU5kSVMm9WnIQF+7Z7G7ih+wroJQPqLhvgvhr0vK0EzPWR26p+6nVeAXdZg5gAqvN+R2k5AggggAACCCCAAAIInGKB+MRceUbt1D5pRBe5flpfsd4Z/RQ3jdsjgAACCCCAQCsJEEBtJUiqQQABBBBAAAEEEEAAAfcSWPpTiny0PEHumhEr44aEu1fn6S0CCLilQNzU+9yy33S6vsDG5c/Wz3ThHAKoLvxw6RoCCCCAAAIIIIAAAgi0vkBhcbm89OEeSTtWJE/fO1oiO/u1/k2oEQEEEEAAAQQcRsDTYVpCQxBAAAEEEEAAAQQQQAABBxdITM2XB+dvFL+O3vLUzDiCpw7+vGgeAggggAACrSHACNTWUKQOBBBAAAEEEEAAAQQQcHmBHzakyVtL9svvL+snk+MiXb6/dBABBBBAAAEEqgUIoPJNQAABBBBAAAEEEEAAAQQaECgtq5Q3P9snOw5ky5N3jZLoyIAGSnMKAQQQQAABBFxNgACqqz1R+oMAAggggAACCCCAAAKtJmCsc/r2DunexV+euX+M+Pl6tVrdVOTaAo/dOUIiOvnJd2uPyKJvD7t2Z+kdAggg4OICBFBd/AHTPQQQQAABBBBAAAEEEGiewK/bM+WVRXvlqnN7yrQzo5tXiZNd5e3jJ35BXZys1Y7Z3JjIQAkJ7KDWyfVvlQaePTZS4gZ3koExIRIU4CMJR/JlX2KuLF6RKNl5ZXbvcVZchFx+Toz4+njKou8SZcXaVLtlOYGAswmEBPk0ucnFJRVSUlppXBcU4C2enh616qisrJK8gvJaebY+6Ov09Y1Juj5dr06+HTyl44lfxhUWVUhZeXVb6tbT2HJ1r+Nz2wg07km3zb2pFQEEEEAAAQQQQAABBBBwOIGKiip576uDsnpLhvztlmHSv2eww7WxNRqUebxYDqbkycHkfPWuX3ky4uzbq6vW/86vHVNojVtSRzMFbrykr/zm7J61ro5VgVT9Gj24s/z9lS1y9HhJrfNdwnzljqtiJW5gZ0t+55AOlmMOEHB2gQG9gmW22syvqWnNtgyZ/fZOCQvuIG89Osnm5UUqyKpnIKzamCZLf0oRvZRL3XTZ5B5yw7R+dbNtfn73y/3yyfdJxrm7ro6VM0dXr6O9budR+deb2+td46m2fJ993xiJObFkzAffJMgH3xyqV46M9hMggNp+1twJAQQQQAABBBBAAAEEHFzgWE6xPPPuLjVV31vmPTBGgvybPrrJ0bqoRz2lZBbKIR0kTVYBU+M9X/KLbI9azD2aKMHhMY7WDbdtjx5BagZPc/JL5Vs1gjTtaJFcOKm79O0RJN3C/eW2ywfUCsLoa+64MpYlJ2x8a3YfypFBvUNsnCHL2QS864wcbWz7vb1UdFIlLy/7vyXSy7X07haoXv2Mn7UH5m+oNyq1oevrtsW67Cc/JMmkkRHipdo/bki4jIwNky3xx2tdcpH6+TaDp3mFZfLVz8m1zvOh/QUIoLa/OXdEAAEEEEAAAQQQQAABBxTYti9L5i3YLRdO7C5XT40RDw/7/7h2wObbbZIetfTRt4l2z9c9kXpwLQHUuiin8PM546tHqumR0f9+a7vsOZRrtOYnNUL6+T+Ola5qndVRsZ0kwM9LCtR0YJ3OOy3KCJ4WFpfL8l+OyGV1Rq8ahdzoj6qqKtEj/Rapn4NMNVL3ncdsjzp0IxKjqykZhdIpxNdpA+1J6QXy3rKD9R7bJWf0kGC1fIZOP6oRpMmqn9ZJj7avm/QI0/99dUB0TDY0yFeG9w8zfkGhy+mfsbtnDJR//3dH3cssn/ck5sjGXccsn+sebNiVZclKUL/EWro6WS49q3ppmJsv6y/3zllvmeIfHOgj11zQx1L+v0v2S26+7V94WQpx0OYCBFDbnJgbIIAAAggggAACCCCAgCML6ODKxysOG9M0H7h+sAzrF+bIzW1y22ZM7S07DuTIroPZJ70291iy5GcfOWk5Ry9w5ugIFZzoIYmpBca6n1efF2M8Vz2q7JBaO3TZzymyZmtmvW4E+nvLlWq90P4xQWr0V6BUqNG7h1WQZpfyW6zWD7W1VmGsmkY8fXK0DFBLPeiRyzqQ8tVPDY8WC1XrNs6Y2ksGqCn43dQGZXpkqQ7qLF2dIjsP1DwnPcV4WN/q7+PGPccswVPdcL2O47dqg6rrLuwrPt6eMlpN1V+9OcPo024VZE1KK5D31bRfH28Ptw2g6tHXP2/NMAKnh5WHTmHBvsY7f4jodZ4//zFZfed7ygVqxKP+HjlT0uuK6qB43TR8QJgMOxFA/VJNv9drBZ8sZWYXyxfKwjrdMK2PXD6lejS+Himq1yQ11061LqeP1ylLc4p+3XO2Pi/8+pAahdpFOod0lOiIALn4jO6W+984ra/6hUh1uG6r+sXeD+vTbFVBXjsLEEBtZ3BuhwACCCCAAAIIIIAAAo4joKdGzl+wS4pKKmXurDjp5ILBFT119MEbBsv9z2wwAnUN6acd+rWh005zLqqLn/SLDjZepw3rYglG6A7oALl+zX9vlxqdlm7pU9/oIPnr74caAQ1Lpi6vAjE6iKmDHXqt0aycUsvp8cPC5cHrh9QKPOk1R0erEaH2RjDrdRsf/v0wY4MpsyI/Xz+12ZSfnDa0i7z68V5j1Kg+FxXuZ6ln+/7aU3z1eR0oNZMeSWgmvYavmTqHut+6p+UVlbJyQ7r6xUiipKrlDqzTidnb1llue6wDzDp4/6Ya4fjpyiSZcX4vOXdsVINT290Ja8FXh1Rgs4fagM3L+DnsqdYj3Xe4/ujV5pjoX4C88dl++dONQ43Lf6t+0aX/PopQfw9MURvG6aRHxb780V7jmD9OvYBz/Xrh1HvRAgQQQAABBBBAAAEEEHARgb2Hc2XW3A3G6J8n7hzpksFT81HpwLAOoja0KsHAXiGSl1V7BJZ5vTO/65FcejMYvQP96s01AVMdLDKTdpl5zSBL8HTL3ix5eVG8vPX5fuNaXa5H1wA12rNmWq0OTN92eX9L8FRvTKM3eklQI1ztBU/1fe66eqARPNUjnz/94bD8/dXN8vqne1UQv8LYDfx3asMoPRJWp9CgmuBn3UCgPp+u+mWmoADnX6/X7Etz33XAaaka/XvHk7/Kix/uqRc81fXW3XG9ufdyhev0CGszZeWUyCsfxcudT62VlWrau7ljvHneHd+1QUFRuaXrga28JvYvahS8Hlmuk/576vqL+8gdVwyw/P3xwTcHa/2MWxrCwSkRYATqKWHnpggggAACCCCAAAIIIHAqBb5SU7g/VMGuO68eIOPVqD93SHrU5aQRXUWvnWkr6XVf33vN1hnnztuflCv/eHWLZX3Q0BPT4vXmS3pKvw5cTlAu5oYtv6ipuLPf3iEqvmkkHUx69oGxxtTvs8dEyjtfHjDWIxw/NNwScF29KU3mqvVzdVr8XYI89LuhxuYwRobVH+PVaFjzPnpd2vfVNF6dtu3NFv+OXsZ0fP+O3jJO1f39ujQVaK0Jiur1TOsm3XYz+au+uGvSNl+rn+klagq2HlHZULLezKehcu5wzlaQVAfln31vt3ysfuFwjfqFwcTh7vH3o63nrUeDhp5YCkCfzzhebKuYkTesfyfJUUsK2EraWY8uteX92sf75IWHwqSDj6ecN76b5XK91MhnalQwyXEECKA6zrOgJQgggAACCCCAAAIIINDGAjrgZIxMU7vSP33vaGPadBvf0iGq11Oa3/n8gOhRt0P6hMrOOuuh9lPT1/Uamq6Y/vnaVkvwVPdvw85jlnVFQ9XI3CL1XeindrM304fLEyzBU52Xk1cmK1Qw88pzY4zRi93U8gB6Q5ceEf7mJfKZ1dqJ5Wqzp6fe2iH/e/z0WksH6MJ6V28zxau1Unt3r/mcre5jJj2dXycvq/nmHqKGr9ZJZpBXZ5eo0ZfumHz8gowNeDIbCG5Zu2RmFcsD89Ybz9LL09PYCV0HVfWO6Hp0qn5pdv3ZzKs5X7u85bwua9ShRriqYcb62FNVYtZRc71V/SfuWV3Gs/q++roT11fnV4+YNY4t5avL6nZ66/In2mndx8YeV9TE3+tdkpReaPwioW+PQLnuopqR1/UKumCGdh0QEyy3qdGg2len5IwCOVJnMyrrruuN3PTLXtp1MMfmaFIdsP7o20Pyfxf1tVyqA636v1OV7vkjbXFwtAMCqI72RGgPAggggAACCCCAAAIItImA3kRGB7YG9wlRwdM4y9TrNrmZA1V6VG2OMvudXcZoxvlqJGWlirrppQusA05Xqw2NXDUVFteOElmPUNSBEp10UFQnHWhOVCO/6iY9GsxMISdGpHUJ62hmySG1q7Z10gEQXVfdFBVec83fbx1R97Tlc9CJKfzW04f9/eqPMNWBOTPZGt1mnnPl97KiPJk3a8yJjeCSbW70Zd1//dz+cNVAY4MwbaansVeoZ6XfLZ/Vo9PHls8qKG6U03m6rNXn6vxKtV6lVNehfr7M85UqAlZdv1Vd+n6qfl3GUr+RV12vXtrBvN4od6IdOjBvljffzXbrQLqKBZ8IplYHbs3Aat1AqyU4rL47x6zW87U2sj4+kJwvj722TWLHXiXJe3+yPuVSx93VZm7vPXmGscyJHpluvQzH8dwSeeGDPbV+sdLUzuvnai8t/zW1VgA1Uf236kBS66y1au+e5DddgABq0824AgEEEEAAAQQQQAABBJxM4IcNafKW2ijlpun9RE/Ddpe0Of6YPLdwj1x8endjBKUZFHjoxiHy5xc2GYEaPSpS7zDtLkkHpeqmjiemv+sgla04hw6omMkMhPipKfc66WCWfjUm+XaoqSchVQVdbVyms7btzzaqyy2omY4eHFCzHqp5L+sgrnVg2DzvLu96/dffXdpXpk/uoUbzJcryX48Y321b/dfPUo+4drVUE3St/j5WB1lrArg1AeLqQK8uv2TlYbUusO0lPax9/Hy9JTXriJQU5lhnu9yxXoe0btLLQ8ycs07y7EzPN8t/u/aILFPLSNhK2jpDjXy2l669oHetU/rv5EHqF3271ahVkuMI1P92OE7baAkCCCCAAAIIIIAAAggg0CKBsvJKeePTfbJdBaSeuGuU6F2U3SHp4MlitYbhsjVH5I83DJEhfUNrdbt/z2C5+bL+8pra8f0qtfapuyc9rVunjirAGRLkY0zbtzYxN3XSeTlq+r5O2bnV73qEX3iYrxw9XmLkm3/UjA01c0TM++icR17efNKgjF4qwExD+4bIirWp5kfjPVZNMzbT0eza9zfz3ek9TC3JcLuadv2bs6NFL8Xw/fq0egFxc0q2q7kYywRYjUhuTP+CbATlra/TmyZdemYPYyf6gWOfsT7lcsc6wPydCoLqtUj1etHhodWjxfWaxDdM6ysvfRjfYJ9T1VIgB9Vo3aam2F7Bcv6EmrVPzevvuDJW7n9mnfrljJnD+6kWIIB6qp8A90cAAQQQQAABBBBAAIE2EdA7r+vNgKLU1My5aoqv9SjCNrmhg1SqA3zzFuxUI/BE5j8Qp3Zy97XZsosmdZc8VXaC2tjI3VN6Vs1u9ueNj1LB58MWEj01+rzTqgMcOjB9RAVKdLJeAkFvzrVkZZLlmkvP6iHBVpvPmCdS1XfSTGfFRcqXq5LNjzbf9fTpvMIyCVKBrDGDOqs1Vb0s67nqdk09EXgpLq2QTXuybNbhjpldO/nJPb8dJJdPiTE26rLeOM162QN3tLHus72R06FBHeQ3k6Nl6sTubvP3pv7vxSuL9lp4Jo7oIg9eP8RYFkFv7rRqU7ps31c9MtxSqIUH+rt419UDLcsFfLEqyVijuo9ak1lvNneJCl4vWdnw3xEtbAKXN0FA/ZVLQgABBBBAAAEEEEAAAQRcS2Dtjkz503ObZMrYSGMEprsET/ck5MgstUFO725B8s8/jLAbPDWf9ozze1n+8W7mueP76s2ZljVLr7mgj1ymRjB27+ov/XoGyd9vGyF6fUSdvl+fahk1+uv2o2p0Y/Uc/OvUbuVnxUVId7Wx1C2/6S+/n97fJuNadU3pic2err+4j1wwqZsKtPoYQZqeUQFytRoN/OgdI8Qc8aoDXGu2Vk+x1qMFH75luAzsHSwxquyDamRxr6jqTajWbs+UYrVBmpnCgjsYbdftHxATYmYb/dB5+hWqRtq6etLPUDs9++BYGXtimQq9cRSpWkCvoWqd9JIQegTv649MkOln93Sb4Km1gXm8ZmumfGU1Jf9GNQq1tdPlU6ItsyKO5RTLe8sOyRuf7bPc5rfn9xH9s0xyDAFGoDrGc6AVCCCAAAIIIIAAAggg0AoCeq25hcsOyiq1rt/DtwyTAWqqurukpT8ly0fLE9XIu1gZM9h91jRtjeerd8L+/MdkNWKxp7Fz+u8u6Sf6ZZ30iNOFXx+yZOlr9Kg0PZJUT/u9/7rBlnP2DvQ0+8UrEuRaFaT19fGSO66INV51ywf4+Uh+YbmR/cn3Sep5dpbOIR1lcO9QeeqeuFrFjxwtlHeXHqiVd+vl/WXi8K618vQH3Vb90ulLNdrtjc/2G8eu/kcvtabkwzcPk/jEXNm855ird7fR/dPT1nXSgeYrzomRs0ZHCCN0a/g+XH5IzhkXZQSS+0UHy5ghnWXDztb5/uiZEVedV7P26euf7jd+CbJLrXu6ZluG8fOrf/F382/6yTNqE0DSqRcggHrqnwEtQAABBBBAAAEEEEAAgVYQyFI7Jc9R/9D08/U0duXWG8u4Q9KbnDz//h45ml0sc+4bLXr6srsnc2SdDqjX3RTKPKeN9KZRZnr3ywOSnFEg113Y2whWmvkFReWyYddRee2TvZbp8+a555S7nj5/5uhIy2g9PZLsMzWdf1DvECMIYgapzGt0kDslo0itq9hHIuo8q+y8Evl5S2at5QF0oPYvL2yWe64ZaPxCQAdedcpXU/t3HcqRlz/aI9l5NWul6nPWo1H1Z5vJw9YqrTZLukymXjPWet1Yl+lYMzsSrUZM/1FtKKeX8XDVtWGbSWNcpjeO0htD6V+s6HTN+b1bLYB659UDpIN39WjojSqo/+u2TOMe+o+3Pz8gY9UvwXzU+dNHRMjyAUdk297WXT7AcjMOGi1AALXRVBREAAEEEEAAAQQQQAABRxXYvv+4Wvdzt9qMI0pmTHWfaekJR/LlabXO67B+ofLA9aONf3A76jNqz3bpNUy/+ilFysqrdyS3vreemnvtX1eJDmyWlNaewvz9ujTRL73WaGS4v5quX9bg7tl6ir1eN/HVxXslOiJAStT0fB3w1Gnp6mQVVN0jhcU1U+vNdvy8JUMFSjOMoGtkuJ/oMG5OXqkczy01i9R61zt4P/LSFhXkEumh7qMDv0cyqtdirVXwxAcdUNcvEgINCfxGrRFLalhAr0s6Ta1FqoOdfdXapHGDO8nGXfXXGz5rTJToJRDspb2H8+QHtamZTlPGRcqwvmHGsV7S4z/q7w/rpH/e9X31Gr463X55rMycs06ta13zCx/r8hy3jwAB1PZx5i4IIIAAAggggAACCCDQBgJ6DcpPVhyWL1Swatb/DZLh/Tu1wV0cs8ofNqTJW0v2G2tunqmm3pJqC9gKXJolGjqnyxQUVciBpDyz+Enf9SjXw2kFtcrp3bN1PQ2lIrVu6aGUxu/cres8nFr7Pg3VzzkEEGiZgP6lxg9q7ePzJ3Q3KtKjUG0FUPWmT/plL3XpdMwIoOo1j39/ac3yIB99e8jmL2kWfZtorOGtNwHUSyz8Rq3LbL25nb37kN92Aqye3Ha21IwAAggggAACCCCAAAJtKKB3J3/89e2yYfcxmTsrzm2Cp6VlFfLCB7vl4xWJ8uTdo9T0cYKnbfg1o2oEEHAygRK1rIaZSq2OzTzzvay80jKq0/oa87z5rtchNpfi0Guhhof5GqeK64xgN8vbei8prV7TWG82F+hfvbyMXjLk0x+SbBUX/cuVBWpTKTNdMLE6gGt+5r39BTzUb2wZA9z+7twRAQQQQAABBBBAAAEEWiCw73CuzH5np0wY3kX07sjusvFJqtow6Om3dkhPtfv6H66Ktay72QLKWpdGD51ufI6bel+tfD4g4IgCG5c/azQraccSR2yeS7WJvxtc6nG2Smfc7eePKfyt8rWhEgQQQAABBBBAAAEEEGgvAb2pxwffJKgA4gA5TW1+4i5pjdpk5NVF8TLj/F5y8ek93KXb9BMBBBBAAIFTLkAA9ZQ/AhqAAAIIIIAAAggggAACjRHQUxpf+nCPpGQWylMzR0mU2uTHHZLeOOR/Sw/Kmm0Z8vfbRki/6CB36DZ9RAABBBBAwGEECKA6zKOgIQgggAACCCCAAAIIIGBPIElt0POU2m1+YK9geXpmnHTwcY/tHI7lFBtLFQSpNfPmzRqr1s7jn3D2viPkI4AAAggg0FYC/Ne3rWSpFwEEEEAAAQQQQAABBFpF4MeNafLmZ/vlpun95Owxka1SpzNUsiU+S55duFsumtRdrjovRjw8PJyh2bQRAQQQQAABlxMggOpyj5QOIYAAAggggAACCCDgGgJ6h2QdON26L0sev3OkxKiNk9whVVZWyeLvEmXZmiPy4A1DZGjfUHfoNn1EAAEEEEDAYQUIoDrso6FhCCCAAAIIIIAAAgi4r0DasSKZ884OiejsJ3PvHyP+Hd3jny65+WUy/71dUqqCx/NmxUlYsK/7fgnoOQIIIIAAAg4i4B7/F+Ig2DQDAQQQQAABBBBAAAEETi6wbudRtVlUvFx5Tk+55Kzok1/gIiXiE3ONoPHpIyPk+ml9xMuTKfsu8mjpBgIuI7Bx+bMu0xc6gkBTBAigNkWLsggggAACCCCAAAIIINBmAhVq6vrCrw7Kj5vS5a83D5PYmOA2u5ejVbz0pxT5aHmC3D0jVsYOCXe05tEeBBBAAAEE3FqAAKpbP346jwACCCCAAAIIIICAYwgczy2RZ97dJR18PGX+A2MlKMDHMRrWxq0oLC6XFz7YIxlZxTL7vtES0cmvje9I9Q0J6H26+vQIkqoqkYPJeQ0VPaXnIsP9jJ+RlPQCKSyuOKVt4ebuIZC0Y4l7dJReImBHgACqHRiyEUAAAQQQQAABBBBAoH0EduzPlrkLdsn5E6JkxtRebrPbfGJqvjz19g4Z2idUZs0cLT7enu0Dzl3sCkweEyn3XjPIOH/r42sk83iJ3bKn8sQjtwyX7l395bu1R+RFtdwFCQEEEECgbQUIoLatL7UjgAACCCCAAAIIIICAHYEqNczvk+8PyxerkuX+6wbJiAGd7JR0veyVG9Pkv5/tl1t+01/OHB3heh100h5demLN3fSsolrB0+mTe8j4oV3s9mr3oRx5b9khmX3vaDWK2ktSMgtltgqO65Gs1mlAr2D5w5Wx4qnWt130bYL8tDnDOB3g5y0XTuqm7hEu3boEiI8aiZ12tEj2JOTI+18fkuO5pdbVyI4Dx40A6iS1Xu4b6ntUXMIo1FpAfEAAAQRaWYAAaiuDUh0CCCCAAAIIIIAAAgicXCC/sFyeXbhL9Ptctdt855COJ7/IBUqUllXKfz6Ol/iEXHnyrlESHRngAr1yjS4M7B0ivbsFGp0xA5tmzyaO6KrW5A0xP9Z7zyssk0q1hq9vBy+JjgiQnuq5njs+Sr79NdVSVi8PcMflAyz3KC6tDnoG+nvLi38aJ6FBvpay+kDXoV+T1L1nzlkrx7JrgqirVeD1/Andxc/XSyaO6CLfr0urdS0fEEAAAQRaV4AAaut6UhsCCCCAAAIIuLhA9NDpLt5DuueKAo62dt2+JL3b/E5jRN/vLukrXl7usdt86lE9KnGnCrD5y5z7xxjBL1f8vjlrn04f2dXS9NVbqkeGWjJOHOgA+Jerk+tmi16OQaf/Ltkv/7hthHH8fxf1kZ9VPeYapWePjTTWV9Unt6sRpBt2HjPKdQrxtQRPdx3Klu37siUk0McIwHp7eYoenarrem7hHqO8/mPngWzJzisxrjtPBWoJoFpoOEAAAQTaRIAAapuwUikCCCCAAAIIIIAAAgjYEli2JkU++DpB7rhqgEwYZn9KtK1rnTnvl+2Z8uqivXLVeT1l2hnRztwVl237hOHhRt9SMgolIaU6IFq3s6nHiuTdLw/UzbZ83rwnS9bvOipjB4erIGgHufq8XvL2Fwekoxoper0KgupUoUaqvv7JPss1x7JLZOWGVFmxPs0InpondJD0geuHGB9je9Ue/aqXBvhpS6b6LvWQQb1DpZtaD/WIajcJAQQQQKBtBAigto0rtSKAAAIIIICAiwvETb3PxXtI91xBYOPyZx2mG0VqjcZXPtojSemF8tTMURIV7u8wbWvLhlRUVMmCrw6qYFeG/O3WYdI/Orgtb0fdzRTQAUhzGQn9rFqS3vh0v4xU6/nqTcGmndlDvvn1iEwZGyVhwdVT9L/+OUUOpxZYblFQpJezqBldap74eWuGJYAa5O9jZlve16jzOoCq02C1/AABVAsNBwgggECrCxBAbXVSKkQAAQQQQAABBBBAAAFrgaT0Ann6rR0SqzbQefreOLXJjnvsNn8sp1gtVbDLmII9/4Gxote6JDmmQL8eQZaGJavva0tSuhqluuTHJLnynBjRU/D/fNMwiersZ1SZV1AqC78+2KjqgwJqgqa5BWX1rtE/V2aKPFG/+Zl3BBBAAIHWFeC/4K3rSW0IIIAAAggggAACCCBgJbBqU7q88ek+uVGtdXrOuCirM659uHVvlsx/b7dcNKm7mrYfIx56ByGSwwr0OrF5lG7g0ZySFrdz0bcJcvaYCGNUa4zVRmHvLj0oBUXVm0ed7CZnjIqwFIlPyLEcmwd5BeWi12TVv5CI6Owem7CZfecdAQQQaG8BAqjtLc79EEAAAQQQQAABBBBwA4Gy8kp587P9snVfljx+50iJiare3dzVu16lFqdc/F2ifPXzEXlQrV85tF+oq3fZJfoXGlQz2lOvSWov6WDom/+YUO/0/1RgdOWGdEt+SWmlWiv1oNx/3WBL3mE1YvS7tamWzw0d6NHKM1Tg3Uwr1qWZh7Xe9ShnvRxGZHj1CNdaJ/mAAAIIINBqAgRQW42SihBAAAEEUzy7gQAAQABJREFUEEAAAQQQQEALpGcVGbvNd+3UUeaq3eb9O7rHPzvy1DTreQt2SYkaFThvVpxlzUu+FY4vEGi1xmjWSUagmmulWveqU3AH6482j328PIyRyDrIfrJ059WxEhRQXeeqTWmiN5SylfRoWSOAyhR+WzzkIYAAAq0m4B7/J9NqXFSEAAIIIIAAAggggAACDQms33lUXvwwXq44p6dcepb77DYfn5grz7y7UyaN6CLXT+srXp5M2W/oe+Jo53w7VK/LW6pGTperjb/sJb3h0xuf7at3esf+47Xy/Hy95Hdq2QrrpAOd087oLp//mGydXe/4uov6yMThXY38zOPF8rpaAsNeKlTt0amiotJeEfIRQAABBFpBgABqKyBSBQIIIIAAAggggAAC7i5QUVklC786JD+q0XJ/+f1QGdgrxG1Ilv6UIh8tT5C7ZsTKuCHhbtNvV+pocUn1uqQdvD1FBz+LTnyu20c94vOH9ban01uXnTG1l2UE8q/bM2Xs4HDxUiNQf3t+b1m5MV1y8+tvCqWvnzqhm1x1bvXUfR2s/edrW0WvdWovhQRVj1Lt6Ms/7e0ZkY8AAgi0hoB7bH/ZGlLUgQACCCCAAAIIIIAAAjYFjueWyN9f2SIHkvPU1PWxbhM8LSwulznv7JDv1x2Rp+8dTfDU5rfDOTJ1sNJMnUN9zcNmvXfvqkaantnDuDY7r0SeW7hbvl6TYnzWy1lcf3Efm/WeMTpC7rhigHFOj4R98r/bJDm90GZZMzM8pLqtBUW2A7JmOd4RQAABBFomQAC1ZX5cjQACCCCAAAIIIICAWwvsUGszzpq3UYb2DZW/3zZcggNrNuNxZZjE1Hx5cP5G8VMBsadmxkkka1A69eM+nltqaX94CwOot17eX7y9qv+pvWDZIWM06wfLD4kZpD13XJT0jQ6y3E8fjBnSWe67ZpB4qqUfKtQSArNVYH7XgZxaZep+8FCrRIQFVwdQs/MIoNb14TMCCCDQmgKM829NTepCAAEEEEAAAQQQQMBNBPRGOJ98f1i+WJUs9107SEbGdnKTnov8sCFN3lqyX35/WT+ZHBfpNv125Y4mHMm3dK9zaEfLcVMPThveRUYOqP5ZSFBB9hVrU40q9DT8j75NkJsu7WdsJKWDrH9+bpNxrle3QHnoxqHGFH+d8dOWdCNfB1Wt0+HUAsnIKrZkharp++ZauwdT8iz5HCCAAAIItL4AAdTWN6VGBBBAAAEEEEAAAQRcWiC/sFyeXbhL8grLZK7abd7WruSuCFBaVilvqg2E9KjbJ+8aJdGRAa7YTbfs04GUmgBqfzU61Ax8NgXD29tDbp7ez3LJf5fsE/V7BktaujpZLjq9u0R08pOBMSFyVlyE/KjWQx0xIEz02qtmOksF5fWrblq8IlEWLD1oye7fs2YU60G1fAYJAQQQQKDtBGr+lm67e1AzAggggAACCCCAAAIIuIjA/qQ8NWV/vUSpKes6iOguwdO0Y0Xyp+c3GtOwn7l/DMFTF/k+m904klEoesd7nSaqUaR6erx1Kj+xy32FWpvUXurRNUC6hFWPXl27I1O27c2uVbRcTc1/+4sDlryRsWHGcU5+zfIBlpM2DszRpuap00d2NQ9lS517WU5wgAACCCDQKgKMQG0VRipBAAEEEEAAAQQQQMD1Bb7+5Yi8r9Z0vP3KAUaQyfV7XN1DvYv6K4v2qt3Re6rNgaLdpdtu18812zJl+lnRah3fDjK0X6hs31cTAH3k5S3i5+ul1jO1H0DVywBc85dVRvC1sLjCpt8vWzNlxp9/VGukeohZZuWGdNGvpiQfNWJ17JAuxiWJaQWSmtnwZlNNqZuyCCCAAAL1BQig1jchBwEEEEAAAQQQQAABBKwEikoqVAAxXg6rNR2fmjlKosL9rc667qHezOe9rw7K6i0Z8rdbhkn/nsGu21l6Jqs2pRsBVE2hR3daB1ArVdy0oMh2UNSaTv+snCyVlFZKyckKneT86EGdjICuLrZ6U9pJSnMaAQQQQKClAkzhb6kg1yOAAAIIIIAAAggg4MICyekF8sdnNxgj5mbfF+c2wdNjOcXyt5c3S4LauGfeA2MInrrwd9zs2gG1PMXOg8eNjxOGdRFPB/7X8ukjqkefFpdWyNdrjphd4B0BBBBAoI0EGIHaRrBUiwACCCCAAAIIIICAswvoEXlvfLpPbrikr5w7LsrZu9Po9m/blyXzFuyWCyd2l6unxhi7pjf6Ygo6tcDi7w7L4FtDJSjARzqF+MrR4y0dK9o2HL26V28g9Y1aVkNv6kZCAAEEEGhbAQKobetL7QgggAACCCCAAAIIOJzA5ysPy4Wn9xC9jqKtVKY2ynnzs/2ydW+WPPaHkdKrW6CtYi6XV6W2TP94xWFZ+lOKPHD9YBnWr3qTH5frKB2yK7B5T5Zc+dCPoveQ0ps+OWq6d8468VJDZPXPKgkBBBBAoO0FCKC2vTF3QAABBBBAAAEEEEDAYQT0bvJvf3lAktWu43dePbBeuzKyimT2OzslPLSjzJ01Rvw7usc/GfIKy2T+gl3GJkFzZ8VJp2DfejZkuIeAXvvW0ZNek7VS/0FCAAEEEGgXAff4v6F2oeQmCCCAAAIIIIAAAgg4vsDi7xJV4EVk+a+pMrhvqEyOi7Q0esPuo/LC+/FyxZRouXRyT0u+qx/sPZwrc1TQeOLwLnLDtL7ipXZIJyGAAAIIIIAAAqYAAVRTgncEEEAAAQQQQAABBFxcIPN4sXy/vmbH7lcW7ZU+ai3F7l395f1lh+SHjWny55uGyqDeIS4uUdO9r35OkQ+/SVCjcQfI+KHVG/PUnOUIAQQQQAABBBAQIYDKtwABBBBAAAEEEEAAATcR0Ot7VlbWTE8uUTt4P/32DgkL8lWjLkXmzRorIYE+bqFRVFIhL364R1IzC+Xpe0dLZGc/t+g3nUQAAQQQQACBpgsQQG26GVcggAACCCCAAAIIIOB0AsdyiuW7tUfqtTtFrYXqoWasP//HceLp6R5T1w+nFchTb+2QwX1CVPA0zu5mWvWwyEAAAQQQQAABtxSwve2mW1LQaQQQQAABBBBAAAEEXFfgs++T7O4qnpxeKMvW1A+uuqLGDxvS5G8vbZarzouRu2cMJHjqig+ZPiGAAAIIINDKAoxAbWVQqkMAAQQQQAABBBBAwNEEsvNK5ZtfGw6Q/nfJPunfM0gG9Ax2tOa3SnvKyivljU/3yfb92fLEXaOkZ2RAq9RLJQgggAACCCDg+gKMQHX9Z0wPEUAAAQQQQAABBNxcYMnKJCktq2xQoaKiytiJPq+wrMFyzngy7ViR/Om5jZJfVC5zZ40heOqMD5E2I4AAAgggcAoFCKCeQnxujQACCCCAAAIIIIBAWwt4+fiK3mm+MSnzeLE8t3B3Y4o6TZm1OzJV8HSTTBkbKX+8YYj4+ardskgIIIAAAggggEATBJjC3wQsiiKAAAIIIIAAAggg4GwCET1HS0lphc1me3t5SExUgPTuHiR9eqhX90Dp1S3QZllny9QjahcuOyirNmfIw7cMc9mlCZztudBeBBBAAAEEnFGAAKozPjXajAACCCCAAAIIIIBAIwQ8vTpI15hRRkk/X28VKA00gqRmsDQ6IkC8VBDV1VJWbolajmCXGm3qKfPUlP2gAB9X6yL9QQABBBBAAIF2FCCA2o7Y3AoBBBBAAAEEEEAAgfYU6OAXJAk7l8vyDx+XyM5+4uHhesHSup7b9x+XeQt2y/kTomTG1F5u0ee6BnxGAAEEEEAAgdYVIIDaup7UhgACCCCAAAIIIICAwwgU5x8T/YoK93eYNrVVQ6qqquSTFYfli9XJMuv/Bsnw/p3a6lbUiwACCCCAAAJuJkAA1c0eON1FAAEEEEAAAQQQQMDVBPIKy2S+GnVaVFIuc2fFSeeQjq7WRfqDAAIIIIAAAqdQgADqKcTn1ggggAACCCCAAAIIINAygX2Hc2X2OztlwvAucuO0vi65pmvLhLgaAQQQQAABBFoqQAC1pYJcjwACCCCAAAIIIIAAAqdEYNnPKfLBNwnyh6sGyGnDupySNnBTBBBAAAEEEHB9AQKorv+M6SECCCCAAAIIIIAAAi4lUFRSIS99uEdSMgvlqZmj3GKNV5d6gHQGAQQQQAABJxPwdLL20lwEEEAAAQQQQAABBBBwY4GktAJ5cP4G8e3gKU/PjCN46sbfBbqOAAIIIIBAewkwArW9pLkPAggggAACCCCAAAIItEjgx41p8uZn++Wm6f3k7DGRLaqLixFAAAEEEEAAgcYKEEBtrBTlEEAAAQQQQAABBBBA4JQIlJVXGoHTrfuy5PE7R0pMVOApaQc3RQABBBBAAAH3FCCA6p7PnV4j4FQC0UOnO1V7aSwCWiBpxxIgEEAAAQRaQSDtWJHMeWeHRHT2k7n3jxH/jvwTphVYqQIBBBBAAAEEmiDA/300AYuiCCCAAAIIIIAAAggg0H4C63YeVZtFxcuV5/SUS86Kbr8bcycEEEAAAQQQQMBKgACqFQaHCCDg2AJxU+9z7AbSOgSUwMblz+KAAAIIINBCgYrKKln41UH5cVO6/PXmYRIbE9zCGrkcAQQQQAABBBBovgAB1ObbcSUCCCCAAAIIIIAAAgi0ssDx3BJ55t1d0sHHU+Y/MFaCAnxa+Q5UhwACCCCAAAIINE2AAGrTvCiNAAIIIIAAAggggAACbSSwY3+2zF2wS86fECUzpvYSDw+PNroT1SKAAAIIIIAAAo0XIIDaeCtKIoAAAggggAACCCCAQBsIVFVVySffH5YvViXL/dcNkhEDOrXBXagSAQQQQAABBBBongAB1Oa5cRUCCCCAAAIIIIAAAgi0gkB+Ybk8u3CX6Pe5s+Kkc0jHVqiVKhBAAAEEEEAAgdYTIIDaepbUhAACCCCAAAIIIIAAAk0Q2JeUK3Pe2Snjh3aR313SV7y8mLLfBD6KIoAAAggggEA7CRBAbSdoboMAAggggAACCCCAAAI1AsvWpMgHXyfIHVcNkAnDutSc4AgBBBBAAAEEEHAwAQKoDvZAaA4CCCCAAAIIIIAAAq4sUFRSIa98tEeS0gvlqZmjJCrc35W7S98QQAABBBBAwAUEPF2gD3QBAQQQQAABBBBAAAEEnEAgKb1A/jh/g/j4eMrT98YRPHWCZ0YTEUAAAQQQQECEEah8CxBAAAEEEEAAAQQQQKDNBVZtSpc3Pt0nN6q1Ts8ZF9Xm9+MGCCCAAAIIIIBAawkQQG0tSepBAAEEEEAAAQQQQACBegJl5ZXy5mf7Zeu+LHn8zpESExVYrwwZCCCAAAIIIICAIwsQQHXkp0PbEEAAAQQQQAABBBBwYoH0rCKZ/fZO6dqpo8y9f4z4d+SfH078OGk6AggggAACbivA/8G47aOn4wgggAACCCCAAAIItJ3A+p1H5cUP4+WKc3rKpWdFt92NqLlNBDYuf7ZN6qVSBBBAAAEEnFGAAKozPjXajAACCCCAAAIIIICAgwpUVFbJwq8OyY+b0uQvvx8qA3uFOGhLaRYCCCCAAAIIINA4AQKojXOiFAIIIIAAAggggAACCJxE4HhuiTzzv13i4+Up82aNleBAn5NcwWlHE0jascTRmkR7EEAAAQQQOOUCBFBP+SOgAQgggAACCCCAAAIIOL/AjgPZMlcFT6eeFiUzpvYST08P5+8UPUAAAQQQQAABBJQAAVS+BggggAACCCCAAAIIINBsgaqqKvnk+8Pyxapkue/aQTIytlOz6+JCBBBAAAEEEEDAEQUIoDriU6FNCCCAAAIIIIAAAgg4gUB+Ybk8u3CX5BWWydxZcdI5pKMTtJomIoAAAggggAACTRMggNo0L0ojgAACCCCAAAIIIICAEtiflCez39kh44eEy59vGireat1TEgIIIIAAAggg4IoCBFBd8anSJwQQQAABBBBAAAEE2lDg61+OyPvLDsntVw6QicO7tOGdqBoBBBBAAAEEEDj1AgRQT/0zoAUIIIAAAggggAACCDiFQFFJhbyyKF4Op+bLUzNHSVS4v1O0m0YigAACCCCAAAItEWCeTUv0uBYBBBBAAAEEEEAAATcRSE4vkD8+u0FN1feQ2ffFETx1k+dONxFAAAEEEEBAhBGofAsQQAABBBBAAAEEEECgQYFVm9LljU/3yQ2X9JVzx0U1WJaTCCCAAAIIIICAqwkQQHW1J0p/EEAAAQQQQAABBBBopMDnKw/Lhaf3EB9v2xPTysor5c3P9svWvVny2B9GSq9ugY2smWIIIIAAAggggIDrCNj+PyXX6R89QQABBBBAAAEEEEAAARsCaceK5O0vD8jrn+y1cVYkI6tI/vLCJsnOK5W5s8YQPLWpRCYCCCCAAAIIuIMAI1Dd4SnTRwQQQAABBBBAAAEE6ggs/i5RKitFlv+aKoP7hsrkuEhLiQ27j8oL78fLFVOi5dLJPS35HCCAAAIIIIAAAu4oQADVHZ86fUYAAQQQQAABBBBwa4HM48Xy/fo0i8Eri/ZKn+5B0r2rv7y/7JD8sDFN/nzTUBnUO8RShgMEEEAAAQQQQMBdBQiguuuTp98IIIAAAggggAACbivw8YrDavRplaX/JaUV8vTbOyQsyFe8vETmzRorIYE+lvMcIIAAAggggAAC7ixAANWdnz59RwABBBBAAAEEEHA7gWM5xfLd2iP1+p2SUSgeHiLP/3GceHqqAxICCCCAAAIIIICAIcAmUnwREEAAAQQQQAABBBBwI4HPvk+S8oqa0afWXU9OL5Rla+oHV63LcIwAAggggAACCLibACNQnfiJHzp0SD7//HM1/Uqt/q+Shxoy4O/vL7GxsXL66aer6Vdq/pUTpKSkJPn0009l586dUlRUJAMGDJBzzjlHJkyY4AStp4kIIIAAAggggIDzCGTnlco3vzYcIP3vkn3Sv2eQDOgZ7Dwdo6UIIIAAAggggEAbChBAbUPctq76X//6l7zxxhs2b9O9e3fj3AUXXGDzfGtmZmVlyS+//CLdunWTUaNGNanqhx56SObPny/l5eW1rnvkkUfkrrvukhdffLFWPh8QQAABBBBAAAEEmi+wZGWSlJZV//LdXi0VanTqnHd2yrwHxkiQP+ug2nMiHwEEEEAAAQTcR4Ap/E78rM2gox5x+uijj8pf//pXufrqq8XPz09SUlJk2rRp8uuvv7Z5D/XoUX2vG2+8sUn30u2fM2eOMYL24osvlieeeEIefPBBCQ6uHu3w0ksvyeLFi5tUJ4URQAABBBBAAAEEbAvkFZbJVz+n2D5ZJzfzeLE8t3B3nVw+IoAAAggggAAC7inACFQXeO7Dhg2Tf/zjH5aebNq0SSZPnix5eXlGUPLLL7+0nHOkA29vb7nzzjvltttukxEjRlia9tvf/lbGjRtnBFaXLFkiV155peUcBwgggAACCCCAAALNE/hcjT4tKa2webG3l4fERAVI7+5B0qeHenUPlF7dAm2WJRMBBBBAAAEEEHA3AQKoLvjER48eLdOnT5cFCxbI5s2b6/WwoKBAvv32W9m6daskJCRI3759RQdh9SjSuuum6vPvv/++6DonTZokzz33nMTHx0u/fv3kvvvuk//973+yevVq4x4ZGRmWKfddu3Y1RsPWu3mdDD3KtG6Ki4sz1nHdvXu3JCYm1j3NZwQQQAABBBBAAIEmChQUlcvSn6pHn/r5eqtAaaARJDWDpdERAer/Az2aWCvFEUAAAQQQQAAB9xAggOqiz7lHjx5Gz8wNpsxu6oCqHuG5d+9eM8vyPn78eFm4cKH06dPHkqeXANBLA0ydOtV416NbzTRlyhS5++67zY+Snp4u99xzj/E5MjKyUQFUy8V1DkpKSoycsLCwOmf4iAACCCCAAAIIINBUgWM5JXLXjFgjaBrZ2c/YfLSpdVAeAQQQQAABBBBwVwECqC765Ddu3Gj0bODAgZYe6s2edNAzOztb9CZTegRpdHS0rF+/Xp5//nlZu3atEVxdt26d5RrzYPny5cahHomqg6k6EKun3es1TNesWSN6HdQuXboYa5jqgmYA17y+Ke96hOvBgweNSyZMmNCUSymLAAIIIIAAAgggYEOgZ2SA6BcJAQQQQAABBBBAoOkCBFCbbubQV+gRp3PnzjWm6OuG6mn5Zvr3v/9tBE87deokOkjarVs349SMGTOMNUf1uw6m6nVH9RIAddMZZ5xh1Ovr62s5pTd9evPNN40Aqh51+tBDD1nONffg8ccfNy7t0KGDXHvttc2thusQQAABBBBAAAEEEEAAAQQQQAABBBBosYBni2ugglMuoNcgvfTSS43RpXpkqRnEnDhxojHK1Gzg0qVLjcNbb73VEjw1z1111VXGWqj68y+//GJmW94DAgLkvffeE+vgqeVkKx588803xn10lQ8//LD07NmzFWunKgQQQAABBBBAoHECwYE+8tS9o2X+g2Nl+IDQxl1EKQQQQAABBBBAAAGXFCCA6gKPVa89+sUXX8gPP/wgaWlpEh4eLk888YSsWLHCsimUHplqTosfO3ZsvV57eHjIqFGjjHyznHWhiIgIY7q/dd7JjleuXGnc39PTU6xft99+u81L9+zZYywhoE+OGzdO/vKXv9gsRyYCCDivAAEJ5312tByBpgr4dvCUCLXWpqenc25MdOboCBkYEyK91U70Pt78L3NTnz/lEUAAAQQQQAABVxJgCr8LPM0zzzxT/vWvf4me8t63b1/RU/TrptzcXDE3ZgoJCal72visr9eptLTUeG/pH35+fvVGuuo6dYC3btJBYL3cgF6fVffhyy+/FB8fn7rF+IwAAm0soH6XIlee21POGddNuoZ1lJKySlm5IVX+8/G+VrmzGZDQlRGQaBVSKkGg2QL6513/TJ4/oZt06+Ingf4+kltQJnsScmTp6hTZeSC72XWHBXeQNx6ZaOzq/s0vKfLKor3NrqulF54VFyGXnxMjvj6esui7RFmxNrVRVZ49JsIol1dQKlvijzfqGgohgAACCCCAAAIIuKYAAVQXeK5du3aVSZMmNdiT0NBQ0dPwCwoKJDXV9j8cMjMzjTpaa9r8+PHjJSkpqcF26ZPHjx83NqY6cOCAsRHV119/bbyf9EIKIOAiArdf0V+G9A2T/Um58vz7e05pry6Y2E2uu7CvpQ1+vl7S+//Zuw/4qMrsb+AnvfdOeggQIEAIvRcpUgRFAXWxri66Yll11V1313137f2/6qprFyuggqAoIEiR3kOHNFJIJ72HvM95JnfmzmQymRRIMvN7/Awzc/v93nAl557nPGEe2u/KBwQkFAm8Q6DnCtx/YxxNHRGidwK+nk40dnAgjRkUQEv+tp0qqhr05pv7xd/bSQZPeXkOXHZFCxAPge5Z2JeGxflpd+/npXlYrJ3QwodwMdhS7zBPOXf7oTxqaGhsYUlMhgAEIAABCEAAAhCwBgEEUK3hKjedY0xMDCUlJdHq1avplltu0TvzvLw82rZtm5w2YMAAvXmtfeHu+dx4G21t5eXlNHv2bDp69ChxkHfDhg0UGxvb1s1geQj0aIEYEaDkkZG7w6/n00drBperqWugd1adIc5Q4yCq0hCQUCTwDoGeLTCoj7c2eFpRVUerfz1PhSW11DfCkyYNC5Z/7zVZ4u0LoKZml9Pe4wXk7GRLu48VXHEsfshzzw399O5fbTmIyWJ9pW3Zn6N8xDsEIAABCEAAAhCAgJUKIIBqRRf+1ltvpT//+c+0Zs0a+vDDD+nOO++UZ19WVka33Xab7OLP2axLlixpkwqvw4274XMgdPDgwXJbrQ04VV9fT/Pnz6fdu3eTu7s7rV+/nhISEtq0bywMAQh0rgB32+e2/0QhbdmnHzRAQKJzrbE1CHSlQFyUrpzP61+epH3HCuXhbN6bQ1/8lEqD+/hQSXlduw+xvr6Rnv0gqd3rd3TF6aNDZPC0srqeNuzKpmunmD8oJT84mtzUfT8rv5LOni/r6OFgfQhAAAIQgAAEIACBHi6AAGoPv4BtOfxly5bRe++9R2fOnKHf//739NRTT1FYWBgdO3aMOBPU3t6eXnvtNRnMbMt2ExMTiYOlXGN12LBh1K9fP6qsrNQOWtXStniQqc2bN8vZvP+WyhB88MEHdPvtt7e0GUyHAAQ6UYBrIHIrKK5ptlUEJJqRYAIEeqyAl7uuK3t1jX6WaakInO4Q3dbV7dllQ0VtchuRmX6W+kd50jSRrR7k60LFZTV0MrWEVmxMp5yCKvUq9O/7EsjF0Y7WbsukrQdy5TyuuTpvUhilX6iQ9UgXTY+kQbE+MtjJWavrf8uinUc0JYX0Nia+8LoTEgMpJtSdnB3t6XxOuajTyvtOo1pRr1ndTqaWUkZOBX35c5qst9yWAGp8rDf5eWkeJnENaDQIQAACEIAABCAAAQgggNqDfwaUQZ+U99ZOxdnZmfbv308PPfQQrVixgjIzM+WLA6fDhw+nN954g0aPHq23GWUgJ1P7CAkJof/85z/04IMPUnV1NR0/frzZdvQ22vSFs065+/+lS5pfepR3w2Vbmm64HL5DwFoEzA0i2IjqGpNFV9xxCQFyFGk5QIwIjFworKTvt2bS/uOajDN24zqsYUFuWsKpI4IpOlTz/e2VZ+mCyMJCQELLgw8Q6PECmXkV2nO45/p+9M93j1D+xWrtNMMPA2K85aRX/jRcb5aLkyuF+LtSYpwvPfnWYcrKq9TOHyRqO3NT31tCxGBVseGe8jV6kD+5uegGjORAKr9e+/yENuCqbOzBm+NoynD9eq39o72JXyPj/emJ/xygympdIPjzH1OUVclP1GNtS5syPFgu3tjYKI5DP5Dclu1gWQhAAAIQgAAEIAAByxFAALUHX8u3336bXnjhBfL01AxyYM6peHh4EGd0vv/++5Senk6lpaUUFxdHLQVIr7/+eiopKSEOvppqf/jDH4hLBPBAUBx0NaeOKQdrGxp0v+yY2j7mQQACGoG2BBGWLuhLV48N1aML8LEjrmM6ONaXXv3sBG07qMkKG9LPl3qJIIjSPEQmKi/DLdDHSQZQEZBQdPAOgZ4vwA9QKufUk6uzPYUGutKbT4ykH7Zn0pqtGVRSZrrrPgcWN4mR7DkIO0UMQhUV4k7eHk60aEYkvfbZSbNxOHiaU1hFPEhTsL8zTUjQ1B1dPDNKL4A6NiFQGzzlfX7xUxpVVdeJTNYIGiruXVxD+rqpkaS+R5l9EAYLOjna0hgxiBY3zqzNK2o5qGywKr5CAAIQgAAEIAABCFiwAAKoPfjicvYmD7zUnmYjCnxFRUWZtaq5AVoOsg4cONCsbWIhCECg7QJtDSL4emmyrg6fKZKB0oultTK7a8HUCLnzBVdFaAOon/2QQoG+znT7NbFy3rmMUtpxOI9EnETU/ytt+8Gq1kBAQoWBjxDoJgJcpuNVken5yJKBsvu8k4MdLRBByLkTwmmdCKR+Keqg1tVreoioD7nhUiO9svy4tpv9lv259OZjI8lTlAQYKwKP/3U8TTW1zddTb0P5zPeZp945TBVVmoep3h6OxFmr/DCHB6+raiotsHhGlFyloqqe/vLGQSqrqJffk84W0/KnJ8hledCnzgigjowPkNvjHWw2qAMtd4o/IAABCEAAAhCAAASsUgABVKu87DhpCECgJwq0NYjwydpkGVDgWoNKO3SqSHSndaWRA/31Mk6VmoNKAPXo2Yu0ekuGslqH3hGQ6BAfVobAZRPgLNQ/vbKPbpkTI4KfAcQPVx0dbEUgVWR2ii75HKw0rI/68079GqVcL3Xn0XyZ7e5gbysz3DNzdd34TR38//vfEW3wlJfj41G6/Xt7OlGVKB1iZ2dDYSJDllvahTLy93YWL/lV/pGRW059I7zENCeyF8vWN4inPh1oU0ZosmBrRfB45xF03+8AJVaFAAQgAAEIQAACFiWAAKpFXU6cDAQgYKkC7QkiqGsRsgsHN1yc7aigqc4hB0p4mrEss850RECiMzWxLQh0rgAP/PTSJ8cpVDxYufnqaBo3RNN9PbqXu/z+4ZpzejusUNUZVWaki8GalOYsMkfNbeqapbxOSXmtdlUOhnILFANV2dlqPg+MEfVRHxmhXUb9gYO/bq72rZYfUK9j+Nnbw4GG9NGULtl3vECvpqrhsvgOAQhAAAIQgAAEIGBdAgigWtf1xtlCAAI9VKC9QYSxQwJoxphe1EcM2uLmcuVv+QhI9NAfOBy21QlkiaxRDqQeHl1E9y2Kk+efILJQaU3rFB4icKk026Zgp/K9Le8NRnr+cwkQdUvNLld/1X4uKq0hzobtSOMB+pRg7Zb9OR3ZFNaFAAQgAAEIQAACELAwAd2/eC3sxHA6EIAABCxJoD1BBB7Q5earY7QMXLuwrKKWvEStQs7WuhINAYkroYx9QKDzBDbuvkC/mxUtB4VyaMoCVW/d2J3DXQwGpbSOBjGV7Sjv+apBnHiQq/e+O6vM6vR3HhCLW6nIhD14sqjTt48NQgACEIAABCAAAQj0XAEEUHvutcORQwACViTQ1iCCvb0NLZwWJYWKy2ro9S9O0pEzF+WgUDdMi6Als3tfET0EJK4IM3YCgTYLjIz3o8y8KsrO069XylnjLs6afx5WVmsGa1JvfNqoYPr1QA4pdU65FMi4hAC5CD+kKSju3FHreeCoiqo6kUHvIPfzsajtfDnKjkSEuBGXLeC27VAeXRLnggYBCEAAAhCAAAQgAAFFAAFURQLvEIAABLqxQFuDCBHBbrK+KZ/S5n25dPj0Re3ZBfg4az9fzg8ISFxOXWwbAh0TeHjJQHmP2HE4l7aLgGHBxRoK8nOmm2fFkJODpo7pseSSZjvx9nCiZ+4bSst/TJHB1+unRZKfl+aewtuqr+/8wOPWA7k0e3yYzIp9aulgen/1OcoQdVddRL3Vgb29afzQQDqdVkrrtmVqj9fH05H8xMBS3NT3vFAxIFVshIeczvWgi8s03f4nDwuW0/gPdN/XUuADBCAAAQhAAAIQgECTAAKo+FGAAAQg0E0E/L0cRYaVZgAX9SFl5FbQ+QsV1JYgQlmFLnOMM80277tA5ZV1tGh6FM0cE6revNmfEZAwmwoLQqDbC1SJ7FJnMdL9pMRg+TI84Kz8Svrqp1TDyfI7lwFZ1lQnVVmgqqaBVm5MV7526vuXP6fKeyPvN763D71uZCCphnr9Aqp3L+hLYwdrMmPVB6M+33XbMmQwliuaTB4eJBfLzKug5Iwy9Sr4DAEIQAACEIAABCAAAUIAFT8EEIAABLqJAHdR/fOtA5sdzY87Mul/356ltgQR8kVmVdqFcooKcaewQDd68/FRzbbb1gkISLRVDMtDoPsKPP1BEt04M4qG9PUlR3vdQE01dQ3EdVBXbEwjDooatn0nCkTGqRPFhGqyOBsbG8W9poJe+/yEtlu/sk5DQyPZiTqq9arRoRqaPvM8sapeU+bxxHoxX2n8QOj+F/fS3Qv60MiB/toMWZ7P2zmdXkIb9+gP+lRdo3uIpGyn2XtTLejBfXzIVwSTuf2KwaOaMWECBCAAAQhAAAIQgAAhgIofAghAAAJdLXBedEXtF+nV4mFwAIJbW4MIL3x8jB64MY76R3trt82B1V9Fd9iFotst1yvk4Ie6caDD3s5W1BjUn87LICChlsJnCPRsAc6yfOb9JNmNP8DXmVyd7WR39kJRw9TgtqB3omnZFXK9YH8XUZfUni6ITNXK6uaBVl7pxr9sE9u30Zu/atN5+nFHlrzHGNYZ3Xkkn27+6zZ5b6qp1c8o5cGpXvn0hBgAT9Ml39PdQW6X60Mbq4n6ny9PEb/MaUr2Kd8Pfz2QZ84qWAYCEIAABCAAAQhAwMoEkIFqZRccpwsBCHQ/gbe+Pk38Mqe1JYhwIb+K/vLGIeJAA9cALC6rpcLiGrmbb39Jl0EKdZYXz+CAB2ejGQuIICBhzhXCMhDoWQIcfDQcSMqcM8gpqGp1Md52nZFEUGP3F2VjpubxMhzczRNBU351RnNytKXRgzSlU46lFItasJ2z3c44NmwDAhCAAAQgAAEIQKD7CCCA2n2uBY4EAhCAgNkCbQkicNCVX+pmrGsuz+cBYOrrjWeTqdc39RkBCVM6mAcBCHQngT4RnnIwKj6mLfv0ywB0p+PEsUAAAhCAAAQgAAEIdK0AAqit+IcPmt/KEpgNgeYCGUlrmk/EFAhYiQACEm270BVV9bQrKZ+mjQxp24pYulMF8oqqKCWrnEbF+4tu4pqyGZ26A2ysWwqcSi2hf7xzSGa2Hksu7pbHiIOCAAQgAAEIQAACEOh6AQRQu/4a4AggAAEIWJQAAhLmXU4OnK4Vo4B/vzWTfL0cEUA1j+2yLVUqBip6/qNjFNXLXQ6uhECqPvUjr+2XmZpcs9mSGpcxOXoGgVNLuqY4FwhAAAIQgAAEIHA5BBBANVN12PSHzFwSi1mzwIGNr1vz6ePcISAFEJAw/YOgDpxWVmsKRHIAFa17CKRllyOQauRS8KBTaBCAAAQgAAEIQAACELBWAQRQrfXK47whAAEIQOCKChgLnF7RA8DO2iSAQGqbuLAwBCAAAQhAAAIQgAAELFoAAVSLvrw4OQhAAAIQ6GoBBE67+gp0bP/GAqkd2yLWhgAEIAABCEAAAhCAAAR6mgACqD3tiuF4IQABCECgRwggcNojLpPZB6kOpHoF9KaS/GSz18WCEIAABCAAAQhAAAIQgEDPFkAAtWdfPxw9BCAAAQh0QwEHFw966OV9lH+x2qyjy8ytpGsf3mLWslioawU4kBo79BoqzDouR263sena48HeIQABCEAAAhCAAAQgAIHLL4AA6uU3xh4gAAEIQMDKBOqqyuj1R0fQ2m0Z9P3WDKqsbjApEBbkSm8+PsrkMph5eQXOiUGSHhUjzbfWokLcaNP6r6gkL5n8Qge2tjjmQwACEIAABCAAAQhAAAIWIIAAqgVcRJwCBCAAAQh0PwE3F3u6cWY0XTMxvCmQmikCqfXd70BxRGYJcOB08dXRNDrenyI+ecasdbAQBCAAAQhAAAIQgAAEIGAZAgigWsZ1xFlAAAIQMEvgX38cQkG+LrRpTzat3HjerHWwUMcEEEjtmF9Xr60OnNqgv35XXw7sHwIQgAAEIAABCEAAAl0igABql7Bf/p36eTsR/9JuTuOupQWiTp+9vQ31CnDVW6WuvlHU8KuievFurPmL/bi2sp/svEqqb2gkB3tbCglwkZvJL6qmqprmXVpDRTdWO1sbKquoo4ultcZ2iWkQgEAHBCKD3cnL3ZGC/fT/rrdnk4G+zjR7XCjFRXtSTKgnlVbU0pnzZbTraD5tP5jb4ibHDgmgycODibut+3s7U21tA2XmV9LarZn02+G8Ftfr6TMQSO1ZVzCqlzstnhklM04ROL181w4PdS6fLbYMAQhAAAIQgAAEINB5AuZF2Dpvf9jSFRJ46g9DKCLYzay95RVV0R+e3k2ThwXTssVxzdZpbGyk9JwK+urnVNp9tEBv/tP3DRWBGE1QVG+G6strn5+grQdyKSHOh568c7Ccs+1QDr26/KRqKaKEfj70z6UJctqeY/n03IfH9ObjCwQg0H0EQsTDlqdFNqufl7P2oDgYyq+xgwNElqsTrdqkn+Fqb2dDT941mIb289Wuwx8cxcOVuEgvujS+0aIDqMpJGwukKvPw3vUCCJxe2WvQmQ91+MinjAimYf39KC7KkzzcHIgH/TqbXkqrfkmn4rI6vZPzcLOnuRPCacRAP5mZ7+hgS3niAe/p9BL68qc0sweB09sovkAAAhCAAAQgAAEIWKQAAqgWeVmJGi4Zzxg1drr1Tcu21DORM2+iQtzpidsH0etfnKBf9+syy0SyaKvtUtP29x8vFNlpJdQ3wosmDg2mH3dk06nUErm+nQis3H1dX/m5vuESff5jaqvbtYQFKqrqaVdSPk0bGWIJp9Omc/h5V7YI2geRk6Ndm9bDwt1D4B93D9IGTw+cKqR9xwtk8HT+pHCZbb5kdm86cLKIUrPKtQe89Pq+2uBpYUk1/bI3h5IzS8nd1VE+QMkvqtEuaw0f1IFUvg+gda2ApwimPX5HPDJOu/YydGjvt13Tm66bEqG3jX7i4Qy/Egf40T/ePiJ73PAC/PfvLTFwm6fIyFe30EBX4teo+AB64KW9VFhsXfcltQU+QwACEIAABCAAAQjoBBBA1VlY1Kcn/nOAOJNCaYP6+NJjt2pGC37z61PEGZ5Kq627pHzUvv/59f2UJbre948Rwc7EIJqUGCzn3XVtH70AqrLCkbNF9PKnx5Wveu/llZpBU0QiK/135Rl65U/DZTf9PyzoQ4+8up94+ryJYfIXFl7xm1/O03mR8WrJjQOnPDI3j9Dt6+VklQHU5T+k0BfrU+nayeE0e3woAqk96Aee7wsh/poSAPtPFtLT7x3VHn1hSQ0tXaB5GDJhaJA2gMoZq9NGaR4UZBdU0j/+e5gKVIGJX/Zc0G7D2j5wIMcaH6J0t+scKGoD8wutZwpMEg/klOBpSXktbRT3lJyCKpo1rhf1DvOkXuKexf/uePaDJHmCPp6OMnjKD5y57MiRM0UyqLpABGA5qMp/L/nze9+d7ZkgOGoIQAACEIAABCAAgU4VQAC1Uzm7z8Zqai8Rv5RWKn6ZUFpZZa2oMWp6JGhel2ujHjhRRAdFFtmAaG8K8HEWmWIO5C/euWaquvHyrW2Tl08T2Wg/bM+keSJLLSbUQwZU9p8opEUzouXmOGi7clOa/GyJf6gDp+zLzdfLEs/UvHPiX3I/WZdMq3/NsIpA6jPLEsjJwY7eX32WosXP//iEAFk7lLMxT6aU0Mdrk4l/RgzbyHg/8SAjmKJFTUaub5wn/v6dv1BBP+zIlOsZLs/f+4nuq/MnR4iMbw9ycbKjU6IL649ieVONH5ZMSAwUx+ROzo724kFGOR1PLqEVG9NI/aBlklhOaV+sT1E+yvdNuy/QrXN6y32OGuRPn4rry236qGBS6kh+uOacXvBULoA/IAABCHRA4Cpxj+HWIGquP/dRkujhUiq/7xB1lf/z5xEyOM7lQ9xc7MR9toGKxMOe77acpy37cvQe2p4W98rnliXKdaNCzSuFJBfGHxCAAAQgAAEIQAACFi2AAKpFX97OOTnOEE27UC4DqLxFD1d7EUBt/7a/+CmVxonAEddOvGV2DI0W9RI5wMO1Vt9acarFAavav8euX9NY4LTrj6r7HIG1BFIHxvhI9OfvH6aHHxboRvzizM4HXtxHStkLXujehX1p5phQveUjgtyIX1xrdPkPySIIkKE3nwOXj94yUHalV2YMi/OjRBE8UIKYynTl/cGb42jKcP1SEv3FgxN+jYz3J85qV4L+3L2VG/9cq7vo87S6+kuUklVKfK5+IrtaaXFRmicFHCw+IB6aoEEAAl0vwA9N5k0Ko3TxQGblpnRaND2SBsX6yP8np4raoet/y6KdR3Q9VpQjdhf/DrjhqkjqE+lBXMOUszjP51bQCfHAZZXYDt8HDFt7Hup4ezjQ4hlR1DdSZJAGuBH/vyKl6UHs8eRi7S44m3RQb839lUuKKMFTXqBaDFi5cU82/W5Wb3lPTBT3wu2H8uT97BPx0MqwpYvzVpqdna4njzIN7xCAAAQgAAEIQAAC1imAAKp1Xvc2nbWDGOBlYIy3XIczWXlABsPWX2S73XODptuuel69+CWKs+rqRUaI0viXmfdXn6PHb4uX3eQ4sMNtw+5sOiGy8CypIXDatqtpLYFUVuEHBr+JwERadhldMzGcvESXUQ6ijksI1I5gP1Z8VoKnVeLvzXdb0qmwpFYOjjJ9VC+yFUWIudborqQC2VWVt8v1hLmbKv+95bbzaJ7MVh01KEBmsMqJBn/wfpTgaWZeBX3xUxpVVdeJwEqErFnKA9JdNzVS1CbWZJt6eWhqBuYUVsoSHAabE8dSLe4ZJLJY7cje3kY+FIkM0WRy2Ylj5lIgcdGe5C22w0HZTJF5vkMENH4TmWJoEIDAlRMICXCh2HBP+RotHry4uThod86BVH4pA0EqM3qHe9Bf74zX1kBWpg8S9zAOYvID0n+8fVhkeOp6vrTnoU5f8e+KJ+8cJO+Nyj5cnFzkwJWjxUOdd745QxtELW1uIf4u2odDSeeaP+E92ZSNysty2RxTbfJwTSYrL5Np4eWETDlgHgQgAAEIQAACEICAvgACqPoe+NYkMFHUErsgaof1E1kfI8XotK7Omh+VnaJOGGekGjYPN0e6eqx+lpyyzNei+69h9/5dInCUlHxRmzHCgUZjmSDKNnraOwKnHbtihoFUW1t7kZXZvGt7x/bSdWtzhukbohYxdx3lxr/cP3PfUPk5NsxdG0C9aWaUnMbLP/nWQUrJ1Dy84Hqh+aIb/81Xx8iA6TUTwrR1+kaJwAJnd3PbfiiHXll+Un7mrLDHbo8Xf5/95Xf1H5zhxY1/bv/yxkHt39eks8W0/OkJMhuNB/xSAqg+7pogS6UI6hprHOxVGt87SsvrtPcQbw8nmiOOV2l+IjE1XGTTjhEBXh41+wPxcAUNAhC48gIcPM0prJLZmcH+zjQhQVOqY7G4D209oBk8kgebfOCm/tp7zGFRN5QzVLkXyaxxoTK4yQ+Cfjcrht746pQ8ifY81OH93LcoTgZP+WETl3k5dLpQ3iv4oRHv73YxYNTOI3nEddb5YYzS+N8uhi23UFd2yMNNFyTm5QJ9nWXNeM6YHyHuj7Oa/i3DpQB+FBm4aBCAAAQgAAEIQAACEGABBFDxc2BUgLvmGbZNogucUs/QcF5ldT0dPFVkOFlknjWQOpiiXsCxKUNOM81IVFa9cA/67OjsQQ+9vE8GuMw57MzcSrr24S3mLGp1yyiB1LjRN9KZfd9YzPn/tDNLGzzlk+KuqNW1DTJj08dLEwhwcrSVwQKev+9EgTZ4yt+5rduWKbrQRslf/EODNF3qeXqY6vPqXzN5kmycBf78R8do+b/Hy8FRlOkc3Ahr6pKfdqGM/L2dxUuZS5SRWy7qqHqJaU5kL5bl7SjdWkWMw2hzFzUGuXE3Xg5C8IB26tIByZmlMkhTXFYrH9Jwli1n084ZH0brd2ZTtshIRYMABK6swLmMUnrqncOyPijvmYOSnFHKgy9xwJL/Xz5mSKDosq/JJt+VlE8vfnxM+1D11wM59PojI8jH00lktAfL+tb88KQ9D3U4Y1XZz4qN6fSlKP3D7eiZYvEwxk52x+eHM1xeZPPeHBFo1QVF+d8jhq2qRjfNVZyL0jhT/90nR+vdn5R5b6081ey+q8zDOwQgAAEIQAACEICA9QkggGp919ysM75YWiMDJTxwlNJcxC8rSg1EZZryfkwEgF7+9LjytdV3Ho27X6SmJiIvzJkvS0Q91P992/NHu62tLqPXHx1Ba7dl0PdbM1o0U5A44PXm46OUr1bz/rsnd4hf1OtMni93a792cjg99NCbFpWBWtE0gJj65DlY7CxGALdvqrkX7KcbDZwDG4aN/y7mXayS3f7V2Vfqv7OG9Uk5k7W+Qb82IY86zt3quXHd0tdEAMRY4wCom6h7WFJWJzK+NBml6u6+6nWUhyYcnODBp7g+otIOiiyyf717VPlKv+7PpTKRQbZoepQMonIWKgKoWh58gMAVE/h//zuiDZ7yTvcfL9T2EvEWQdGq/EqKDfPQHs/XG9K0wVOeyPeGX0Qw84ZpkfLvci9RHoADqG19qMPbiu6l28/p9BIx6J47T5atWOxHacp9Unmow9NtxH+GTd1zpkbck5TG2a119fyQp/k6XGqEg7G7jxYoi+MdAhCAAAQgAAEIQMCKBRBAteKLb+rUn3rniByVNkgEcR64qZ8MrIwTmSd7Egto20FNVz5T65ua5yUGhbhjXm+5CAeNskS22QBRY5VLAGwUXZMNgz6mttVd57m52NONM6NlbUtNIDVT/iLWXY+3K46Lu2i21JTA6ezxoeQk6mg+YEHd91s6Z3WQkZdxVmVJ1dbpApDq9ZXSGurggIuT5rbOwVJ+tdY401XdeOAYY61IPFThYAi3MhFA5cCrp5vx/4UEiHncOJCqDCbDgVsODtsaufCHTxfJACqvo9Ru5c9oEIDAlRMwfEDK/39WGmefc+OgKDf++6webElOFH+o7x98H+fW1oc6vE5IgO7h7T/uHsKTjDYe1JIblx9RmmtTBrzynd85015p6vsiZ9Qv/stWshP3Je7az7War5saQUP6+MqyIw/dPICWZewVA2fqSgAo28E7BCAAAQhAAAIQgIB1CRj/7de6DHC2JgRyRT20lz89Qe+ILm5ODqLb3Oxo2iEGelH/AmJidaOz7ro2VjtQxYdrztHp9FKRgTlSBld4xPHHXj9odL2eOBGB1LZdNcPAadvWtqylC4prtCfEA6QYNu7yzn8nuakDHdwtnhvP9xcZ5Ia/+OvCCHIxyi/SBQZ+2J6praWqmWv8z+KmQCrXWuWHLHyfUBrHR/uKQWa45Rfrtl1YUkNBIrAaGqArN6CswwNNKY27+6NBAAJdL2CQrC4PSHmww4FH9YMb5Wi5q7/SOLuTW1sf6vA6yr2NP6ddKDe6L5539Fwxv1FphS7Y6ylqshs2dRBXfb/k5RpFQmo9NdLF0lr5OnL2Ij3zx6HywS4PhJfQz4c27b5guEl8hwAEIAABCEAAAhCwMgEEUK3sgrfndPmXirWy3mKkDIBMHRnc7l8mhsb50oShwfIweBApZWAKDtzMnxwhay1OGx3S7u235/yuxDoIpJpWRuC0uU+RCDhy9iZnZI5PCKSP1yZTtWpwpomJgdpaphmqkaJ5cCmljRsSQGt+zVC+0rxJYeTZlBWmTOTMLS6lwN3xefRs3o+SNaosY/h+RGSMDovzk5MnJgbQyo3ntYuMGRyg3QcPFqe0NJHZygFUDmTERXvSKdWo2GMHByqLEdcERoMABLqngPLAhQOL3JuEu+2rm3tTRihPK2l60NLWhzq8rrIf/vz3/x7SDmzH3401JTue58X39iIeaE/deEBMpakfTinT1O8cUN0v6k5zzxhuSokT9TL4DAEIQAACEIAABCBgfQJI9bG+a96uM+ZanlzLkNvCpvpm6g1xUCQ+1tvoy8dTNyjOvTf0latx9793Vp7RboJrqZU1ZZDcNre36EpnmbF9JZD63t/HiC7+UdqRybUQVvaBA6d8vf/3t9Gy2yR310fTCHDyFg/Kws3d1YGe/mOC+IXeS3RtdaEZY3rRvQv7yXn8d2nddt1I0buTCkS2libzi0fCnjQsiHiQqbuu60N3zu8j1zH8Q3mQ4e3hRE8tHUxRot4gd3nlYAgP5vLIrQNo7sQw7Wqcha7s48aZMWL07V5yHxOGBmqPixfesl9z/PyZR+pW2iNLBtIAEeQIEdmo/PdgpjgfboUl1XJALWU5vEMAAt1LILdIl20+XdQyVzcb8S/K6aM1f5e5l0q2qJnKzfChjnodYw91eP4FVVb7pGGah67q9Qw/J2eWy9IiPH14fz/xQEj3/xI+Lr5ncuPB+pQBLzkAHOirKxUgF2j6o4+qRru6PIB6GXyGAAQgAAEIQAACELAuAcuMUlnXNbwiZ8vZHZv2ZNNsMUo2Z5FNGRGsl+ER3ctdBHiGGj2WNSL4+pHoqn/z1dGybiIv9N2WDFn7VFmBa699tj6V7r2hH3mIYNEtc3rTf1ecVmZb3LsSSL1mYjjxSMbW2G6ZE0OTRXAPQdOWr/5XP6fRmEEBMoAaG+5Jzy5LbLbwio1pel3ouTv9tkO5NCkxWAyMYkt/+t2AZusYTvjy51SRfRooRrJ2FNlbPnIkbcNlGkQ2rNKKSmrp283n6fqrImV21tLrNcFcZT6/f7ruHOUU6IItvx3Jo2unRIjBYdxlFuqz9+mfC9eAfe+7s9oHNept4TMEINA9BLYfypf1vbme8U1Xx8jBJveJwaZcnO3kQJBKiY7N+y5os0b5oc7t1/SWIxvNAA4AAEAASURBVN3zQx3OSD2XWUazRN3zuRN0D2bUZ7hHrHPb3Fh5D+P/V/CDIn4IUy4GnONBqUaLBzucIcqDV/I0DtjuFPeYmWNCxQNYR3ryrsHiHpRMVeLfFovFQ5qoEM0gVHuO5Wsz+ReK+xf/m4b/H8zHm5lbJcoN2MkHQnzf5cb7PZXWfBA/9bHiMwQgAAEIQAACEICAdQgggGod11lmXSinWl2jC4Qo0/i9ulYznTPL1KPUKsusFl2BZ4pfeLg7G3fT5S5yVU3rKMsYe+duxzwAxQzxiw03zmBZKYI+hm3D7myaI36ZiQh2oynDg+mD1WepxoztG26nJ33nQOq0kfpZPD3p+DtyrErWYUe20dPWbRB1Azmzk38pN2xcU5Cbel6hqIN6/4t7ZVZnQl9fGUzgZWR2V0ElLf8hmfYkFfIkvfZ/X5ySQYKJIoiq1CTk7E7+O9w/2ou4y7x60Kqyinq5n7sX9KGRA/316g/yMfMo2Bv36LJJeWfLf0iRXf958DceUIobH9f53Ar6cUcWbdiVLacpf9SLka7/JUb55n1wcMKmaTAp3n5qdhm9+80ZOnu+TFkc7xCAQDcU4Ac032/NpAVioCX+t8Dt18TKl/pQOeP0i59StZPa81CHu9mv+iVNPHiNkfeje8RDGn4ZNi49wgFUbt9uzqDhA/yIazMPiPam5+8fprd4trhnfrouRTuNb7lcK5oHyOSXscb3WMM60saWwzQIQAACEIAABCAAAcsXsBHBMs1v7ZZ/ru06w/BB8+V6w6Y/1K71sZJ1CRzY+Lo84YykNdZ14pf5bMPjm/4ezujZfw+5nqmDGDDJcLRr5uOHDE6OtnKesbsyxxuDxWBSHBDNyqs06+ECrxMe5CYfiCgDPXF3VlexDT6GlvbDJTk83R3kMlyLsLWaqLwsr3NBdNk1dm6GPx58njz4FA8dxeeiBI8Nl+up3w9saLoPHDPvPsBdhDkLzlofpnSX65wnHu6lZJXTqHh/bYC/pWOzlHvSDdMiROZob+IHGQsf36o3QORYUUP5sdviJcG9z+2Rf78VD66F/rtZ0TJYqUzjn+P9Jwvof+JhSEVVgzJZvnOgcun1fcjUQx1+iGrY84Qz42+dGyN7vqg3WFxWQ78dzqcPRO8WfnCjNO6Sf/9NcaKeuqf2QVB5ZR2dSC0R2z4lsl91NVu5vNBNomcMPxDmni9K438Wp4u60p+vT6F9x5o/oFKW60nvbb0n9aRzw7FCAAIQgAAEIACBKyWAAGor0gigtgKE2XoCCKDqcXTaF0sJVnQaCDbUrQXMDVZwwGnttgyZ0efr5UhvPj6qW5+XpR/cuYwyevS1/RQlykxwbV5TgVRLuie5iu73dSJD3NiDEp7H2eot9QbhWqPB/q6iu34d5YmHLa219jzU4W3ygyN+gMSh0hJRAoAHtzTV+EERPzzihzPZ4iFNa015aMS13rn0iDGL1rbRneebe0/qzueAY4MABCAAAQhAAAJdLYAu/F19BbB/CEAAAhCwKgF14LSyWtP9mAOoaN1DIC27nJ7/6JhZgdTuccQdOwpTWeOm5vFeOdM0WQSezW2c9X5eZHeqG496b5ixqp7Pn6tEKaBUkR1sbuNtnr+gvx9T63LZAfVgV6aWxTwIQAACEIAABCAAAesUQADVOq87zhoCEIAABK6wgLHA6RU+BOyuDQLWFkhtAw0WhQAEIAABCEAAAhCAgNUJIIBqdZccJwwBCEAAAldSAIHTK6nd+fsyFkjt/L1gixCAAAQgAAEIQAACEIBAdxZAALU7Xx0cGwQgAAEI9FgBBE577KUzeuDqQKpXQG8qyU82uhwmQgACEIAABCAAAQhAAAKWJ4AAquVdU5wRBCAAAQh0sYCDiwc99PI+s+sqZuZW0rUPb+nio8buzRHgQGrs0GuoMOs4cU1PHhgJDQIQgAAEIAABCEAAAhCwbAEEUC37+uLsIAABCECgCwTqqsro9UdH0NptGfT91gxqbTCesCBXevPxUV1wpNilInBODIb06Gv7la8tvkeFuNGm9V9RSV4y+YUObHE5zIAABCAAAQhAAAIQgAAELEcAAVTLuZY4EwhAAAIQ6EYCbi72dOPMaLpmYnhTIDVTBFLru9ER4lDaIsCB08VXR9PoeH+K+OSZtqyKZSEAAQhAAAIQgAAEIACBHi6AAKqZF/DAxtfNXBKLQQACEIAABHQCCKTqLHriJ3Xg1Ab99XviJcQxQwACEIAABCAAAQhAoMMCCKB2mBAbgAAEIAABCLQugEBq60bdaYmoXu60eGaUzDhF4LQ7XRkcCwQgAAEIQAACEIAABK68AAKorZhnJK1pZQnMhgAEIAABCJgvYCyQav7aWPJyCyBwermFsX0IQAACEIAABCAAAQj0PAEEUHveNcMRQwACPUSAe/vGhHnIkbpTMst6yFF37WE6OdpSRLAbVddeooyciq49mMu8d3UgdVdS/mXeGzbfmoCnmz09fkc8Mk5bg8J8CEAAAhCAAAQgAAEIWKEAAqhWeNFxyhCAwJURmDw8mB68qb/c2d3/3kX5F6uvzI67YC//+uMQCvJ1oU17smnlxvPtPoLhA/zpz7cOFEHnRlr6zG7KK7JcMwWJA6nTRoYoX/HeRQKB4ueXX2htF+guD4uC/V3Iw82BsnIrxIBtDW0/EawBAQhAAAIQgAAEIACBFgQQQG0BBpMhAAEIdFRg3qRwuYncoiq94OnMsb1oUmKQnFdYWkMfrj5HF0trTe5u2ABfmj85nOxtbamm7hK98dVJKioxvY7JDXbyzMhgd/Jyd6RgP9cObflESrEMnnLNySkjgunrn9M6tD2sDAEIXH6B7vKw6O93DabQQFf5IOfNr09f/hPHHiAAAQhAAAIQgAAErEYAAVSrudQ4UQhA4EoKxEV7UbQYhIbbjkN5erueKgKD/SK9tNNqahrI1C/7Dva29OCN/clTBCiVFh3qLgKoRcpXi3nnQPKJ1GIaGOMjszJXbEiTJRAs5gRxIhCwQIGWHhapT5XviaPi/YnvXXxvdHK0o5LyWkq/UEF7jxfQtgO5VCseDnGztbWhFx9MJEcHO8rKr6QXPz7W7D7QN8qT7r2hn1x25cY0eZ89lnxRBlDHJQTR++LBVLW4t6JBAAIQgAAEIAABCECgMwRsO2Mj2AYEIAABCOgLjE8I1E7Yflg/gKqd0fRhgshGdXW2M5ys/T5+aKBe8FQ7w0I/bG8KOAf4ONOgPt4WepY4LQhYhoCph0V8hlzX+A8L+tBzy4bSdVMiKKGvr8xWdxYBVC77MXKgPy1bFEdvPTFKex+8dKlRBli5HvKYQQE0bZR+iQsuGbBUbJMDsZGyZrImUKrcO1yc7GjskADLAMZZQAACEIAABCAAAQh0CwEEULvFZcBBQAACliYwZrC/PKWsvEpKyyo3eXpOIstqkqiX2lKbMz60pVkWOX3nkXxqEAEUboaBE4s8YZwUBHqwgKmHRTbiX5nPisDp7PFhxGU5ODB66HQRrdyUTh+uOUs/7sikIlHGhJufl5MIoOo6Rn245pxWZcnsGG1wlSdyeY/eYZ5yfpLIOt1/vFB+Pp5cTMVlmu1NNwi6ygXwBwQgAAEIQAACEIAABNopoPuXajs3gNUgAAEIQEBfoJeowefn5Swn7jCRfXpeDHQSLDKwHB1saeaYXrR+R5b+hsS32AgPig3XBAq4e2p8b59my/CEkABXmiVqqw7u60MB3s5kb29DBRdr6LAIVny1IZXKKur11ntmWQJx4Pb91WdFl1oPGp8QQDGhnlRYUk0nU0ro47XJVFGlvw5voJ/oNjt/cgT1FcfFWV6n0ktlEERv4wZfRsb70cTEYJkt5uftRHliMK3zotvuDyJ4wvsybKXldcS1UAfF+oiu/MhANfTBdwh0JwFTD4vmTQzXBjo5sPnKZyco6Wyx3uG/991ZukoEO6cMD9I+OOEFDp0qon0nCmiEGFiO6ysvmh4l70vO4r5ziwiocuMHLe99e1Z+5j/E2HO043A+zZ0QRv2jvYnvxdniIRYaBCAAAQhAAAIQgAAEOiqAAGpHBbE+BCAAAQOB2DAP7ZRMESRtqVVU1tHOjFKaPDyEokLciWv6nUkr1Vt89jhN9ikHCjbuvmA0gOovgpJvPDaC7O30OxXwYCr84qDqgy/tk9lfysa5xii35+8fpkyS72GBbsSv/jFe9MCL+uuMGuRPj94ykLgmq9KGxflRYj9fmV2mTFO/37uwrwgO62fQRgS5Eb/GDg6g5T8k03dbMtSryM8cYOUAqq+nkwwG19drMlKbLYgJEIBAlwmYeljk5eFAN86MlsfGmaf/fPcopWU3z8bnoOcmcW/jl2F7/7tzsss/33PmTgyjn3dn09QRIeQj7gvcfvotSz6MUa+380ieDKDytAGi7ioCqGodfIYABCAAAQhAAAIQaK+A7rfg9m4B60EAAhCAgJ5AVNPgUTyxoETTnVRvAdWXDXt0QYOZo3up5hB5uNnT+KFBctp+kYmVX1ytN1/54uHmIIOnpWJAllW/pNPTHxyll5cfp4ym4G24CFaOGOinLN7svVFEMDhT9rMfk+WgLrwAB1HHqeq42tnZyDqGSvB059E8+urnVEoVARHummusjRXrK8HTKjGYyxc/pdAbX5+ijXuy5eI8UMyS2b0p2N+l2eqcCcuNt811EtEgAIHuJ2DqYVFclJfMUuej3rI/x2jwtLUzyi2sojVbNQ9Y+AHRE3cMovmTwuVqZRW18p5iuA3lvsfTg/1w7zD0wXcIQAACEIAABCAAgfYJIAO1fW5YCwIQgECLAt4i80pphcWmA6gnkksou6CSevm7imBpIH0gutRXVmsGROEafo5N2Z7rRaZVS41Hsf7nu4fpZGoJ1dRqRrHmZbPF6NWvPjxCrhYaYDyQwJlhHNTcsi9HLncytZSeuW+o/Bwb5k7bD+bKzzx6tlKWYPuhHHpl+Uk5fZWoZfjY7fFyIBg5QfXHTTOj5Dfex5NvHaSUTE322S8iaJwvuvHffHUMcWD2GtHdlrvxqltBca32a5CfM3EtWTQIQKB7CZh6WBQR7Ko92O2HNPcR7YQ2fFi5MU127+f7Dw8YpbRPf0gRZUY090plGr9zuZLaukuyNEqQv6aUino+PkMAAhCAAAQgAAEIQKA9AshAbY8a1oEABCBgQsDdVRdALWolA5U3s0l0S+WmHkyKkzqvHqvp+p4jsrAOn74olzH2Bwcoeb46eOruai8GU9EFId1cdMek3sZPO7O0wVOezoOwVNdqghI+Xo7aRcOCdMGQ1b9maqfXNzTS8x8da1YvlUfe5sxXblzHUAmeKiuu25Ypgxz8PVS1bWV+QVMGKn8PQhaZwoJ3CHQrAVMPiyJUwc6svCrtcQ/q400fPDWm2eutv4wivm8ZNr6vfbouRW8y14/epMre15spvigZ7MHi4QsaBCAAAQhAAAIQgAAEOkOg+b9UO2Or2AYEIAABKxbg4CG32vpLxAHG1tpmkf35u1m9ZTamMphUYn9fCmzquv6zCHK21vx9nGnBlHAaPsBPZopyZqc5raIp21W9bIkoBeAs9q2uqRogtq+01Cz9OoYcwK1v0GW+8nLqrrPnRJ1Xw8ZZtnkXq2SpAG8PXaBWWU7JwuXvvH00CECg+wmYeljkqnpoo74/eLg5arPZDc+I7wXllc0HrzNczkHc37i8B5cfMda4dEqIyOoP9tM9+DG2HKZBAAIQgAAEIAABCEDAXAEEUM2VwnIQgAAEzBSoFvU+uXH3ex6pnut/mmrFZXW0/2QBjYoP0A4mNXt8mFylTgRhN+3V1Uk1th0eROq5ZUNJHeSsrK4XGakN2sFWjK3X0jQesMqwuThp/nfBwUxzApo8UrbSauuab4/nuTprtmksBuLtrsuYdXbUbUvZJt4hAIGuFzD1sCi3QJd1GiJKiFws1WTEHz5VKEqAHOcCx/IExg0JoNGDAlo8Gb6H3n5Nb735HBydOyGUvt+aqTdd+VJZpQnCNhg82FHm4x0CEIAABCAAAQhAAAJtFUAX/raKYXkIQAACrQhUNP3yzov5ieCmOW2jqjvqHSJYwCPbc9uVlCdr+pnaxjRRK1UJnv68K4tuf2oH3fzX7XTHP3dSgxkZsKa2rcxTygHwwE+c7WrYDPNdC1S1X0OMDBLF2+GSBdw449Ww+Xrp3NSehsvhOwQg0HUChg+L1EeiHsxpYIy3dhZnl28/lCfrK3ON5WOibIiptnhGlPZB0O6kfO097caZ0eSpetCi3oZXU1a7c9ODH/U8fIYABCAAAQhAAAIQgEB7BBBAbY8a1oEABCBgQkDJtOJFODvUnHbgZCEVlWoGnOof7a0d2f6n3zT1UU1tIybMQzv7vW/PitqndfI7B2+bkry089v7gQd9UhpnjKnbvElhIpCh3w2fa79y9iy38QmBpM5I5WkTEwPJzUWTgZqRU8GT9Jra7WKZ6YG49FbEFwhA4IoJqB9uGD4sSs3W/b2+bkoEqeulmnuAoYEi03SiJhu/WNwH/u+Lk8R1m7lxBvstc2KMbsq/6QFMRZXmXmh0IUyEAAQgAAEIQAACEIBAGwQQQG0DFhaFAAQgYI5AWrauRqifd/NsTWPbaBSxxl/25ujN4oFSTqSU6E0z9qWsQhck4GCmq7MdDe7rTS8+mEic6dkZbXdSgbbe4O9mxdCkYUFy8Ke7rutDd87v02wX3C3/1wOa8+E6iU//MYEGxHgRd+WdMaYX3buwn1yHayOu2968xqufKgM1XRWIabYjTIAABLpMwNTDolOpJXT0XJE8Ng52PnrrQJFJqv+gpbUDv3tBH20t5s/Wp8pyKF9tSNUOWjdtZAj1Dtc9QOLt8UMjH0/Ngyslc761/WA+BCAAAQhAAAIQgAAEWhPQpP+0thTmQwACEICA2QLJqkGW+ohf7n9Rdc83tREeVfqGqyJU2afNA4vG1t97vICuEoEEbrfOjZUvY8t1ZFpuYRVtO5RLkxKDydHBlv70uwGtbu6rn9NojKhtyAHU2HBPenZZYrN1VmxMI962Yesb6SUnlVXUkrocgOFy+A4BCHSdQGsPi95ddZb+788jZBA0vrcPvfHYSFq7PZNSssqoQgwWFdXLna4e28voCYwe7E8JfTWlTNIulGvvo2UV9cT3jTvmxcp7JQdZn/i/g9pt8EBUdk0PjlJU92LtAvgAAQhAAAIQgAAEIACBdgggA7UdaFgFAhCAgCmB7LxKUrq8jx0c0KwbvTIidb1BfVIOJB45e1FumgeB+nW/fkaqenl1bdM9Ijv0k7Xn9Aar4u7z2w/l0Kk0TX1Bw4GhlPWVY1Gfj7Ifw3n/98Up4hqr6kGxCkuq6YM1Z2nn0Ty5CfV+CkUd1Ptf3Esc4K2t03Tn54V4EKrMvAp67qOjtGJDunrX8nNIgCtFi8AKt0NnNBls8gv+gAAEupWA4cMiw4PLEvfCZz44Snyf4MYPU24StUufvHOwfKDyhwV9KSzQTbuaUlPV3t6Gfq/KbP9Q3GPUg839IIKwuUWaBy9x4mELZ8QrrU+ELiM1JbNMmYx3CEAAAhCAAAQgAAEIdEgAGagd4sPKEIAABIwL7DyaT/MnhcvaoPGx3pR0VjdQyt//e4RcnGypsqah2cr/790jsgt+Te0lUgKZykJn0krpxr9sk1+VQIMy77stGfT9tkwK8nMRgzPZEtcV5fW5C7/clxi4Rd14Ow4iSMEDuhi2h1/eRzy6tuE8Dny+vfIMvbPqDIUHuVGNCIoq2aPrREDD1elUs3W4i++zHyTJIHKwGEyKR9TmoAqfX0ttfIK/dtbOI/naz/gAAQh0LwHlYREPYscPi9795oxeoJOP9tCpi3T/C3vpZlH6g++FYaKuqb2d7vk911E9eKqA1u/M1mabc1BVGRhvz7F8OnpGd//kbfK97eO1yfT4bfH8lRL6+dDWA7ny8/ihgfKd/zhssJ52Bj5AAAIQgAAEIAABCECgjQIIoLYRDItDAAIQMEdgmxhdmgOo3HgQJXUAlQORFVXNA5e8LGdZtTSP5xsGTnma0jirlAMa6tbSvjhDta5evaTuMwcn6ls4Pl6Kj/G8wcBPXMPV1HHzOhfym3fV1+1V92lcgiabjAMrh04hA1Ung08Q6H4Cph4WKUfLD2Pe/+6s/MoPdbgWsqO9LZWJbvwFqgHqlOW5NMBN4iEP1zM1fJCjLLNLPFxZ/MRWEYzVPQhyENscMUAzyF26uEddyNe/Hyrr4h0CEIAABCAAAQhAAAJtFdClALR1TSwPAQhAAAItCiRnlNHxFE13fK4DaoO7bYtW6hk86nZUiKb7/nox2rapTFX1evgMAQh0jQA/LFIaPyxqrfFDnazcSkoV9UmNBU+V9blUSEvBU2UZvj/wgxule39if1+Z5c7ztx/UL4GirIN3CEAAAhCAAAQgAAEItEcAv9K3Rw3rQAACEDBDYNWm8+IX+0bycHMgPy9nM9bAIpFNtU+raxuI6xyiQQAC3VugOz0sGp+gyT7l+8dPoiQAGgQgAAEIQAACEIAABDpLAF34O0sS24EABCBgIMDdz294bCuJXqjN6pkaLIqvTQI7D+fRwmMFVH/pEnFZADQIQKD7C/DDogF3e2sfFpnKLL2cZxPVSzOA1M+7sqlclAdAgwAEIAABCEAAAhCAQGcJIIDaWZLYDgQgAAEjAspo90ZmYVILAlyfFQ0CEOg5At3lYdEDL+0le1tbUd8Z95Ce89ODI4UABCAAAQhAAAI9QwAB1J5xnXCUEIAABCAAAQhAoNsKdIeHRZy1Xiey19EgAAEIQAACEIAABCDQ2QKogdrZotgeBCAAAQhAAAIQgAAEIAABCEAAAhCAAAQgYDECCKBazKXEiUAAAhCAAAQgAAEIQAACEIAABCAAAQhAAAKdLYAAameLYnsQgAAEIAABCEAAAhCAAAQgAAEIQAACEICAxQgggGoxlxInAgEIQAACEIAABCAAAQhAAAIQgAAEIAABCHS2AAKonS2K7UEAAhCAAAQgAAEIQAACEIAABCAAAQhAAAIWI4AAqsVcSpwIBCAAAQhAAAIQgAAEIAABCEAAAhCAAAQg0NkCCKB2tii2BwEIQAACEIAABCAAAQhAAAIQgAAEIAABCFiMAAKoFnMpcSIQgAAEIAABCEAAAhCAAAQgAAEIQAACEIBAZwsggNrZotgeBCAAAQhAAAIQgAAEIAABCEAAAhCAAAQgYDECCKBazKXEiUAAAhCAAAQgAAEIQAACEIAABCAAAQhAAAKdLYAAameLYnsQgAAEIAABCEAAAhCAAAQgAAEIQAACEICAxQgggGoxlxInAgEIQAACEIAABCAAAQhAAAIQgAAEIAABCHS2AAKonS2K7UEAAhCAAAQgAAEIQAACEIAABCAAAQhAAAIWI4AAqsVcSpwIBCAAAQhAAAIQgAAEIAABCEAAAhCAAAQg0NkCCKB2tii2BwEIQAACEIAABCAAAQhAAAIQgAAEIAABCFiMAAKoFnMpcSIQgAAEIAABCEAAAhCAAAQgAAEIQAACEIBAZwsggNrZotgeBCAAAQhAAAIQgAAEIAABCEAAAhCAAAQgYDECCKBazKXEiUAAAhCAAAQgAAEIQAACEIAABCAAAQhAAAKdLWDf2RvE9iAAAQhAAAIQgAAEIACB7iPg7OpNn/+YQpcuEV1qbBTvmldDo/guP18S05XPYl7T57sX9CUvd4fucyI4EghAAAIQgAAEINBFAgigdhE8dgsBCEAAAhCAAAQgAIErIVBdWUznMsro0Okis3c3tJ8vgqdma2FBCEAAAhCAAAQsXQBd+C39CuP8IAABCEAAAhCAAASsXuDhJQPIz9vJbIeF06PMXhYLQgACEIAABCAAAUsXQAaqpV9hnB8EIAABCEAAAhCAgNULeLg50GO3xdNf3zxIDdx330QbGONNA2K8TCyBWZYsEB4/35JPD+dmoQIZx9ZY6JnhtCAAge4igAzU7nIlcBwQgAAEIAABCEAAAhC4jAL9Ij3pzvmxre5h0YzIVpfBAhCAAAQgAAEIQMCaBJCBak1XG+cKAQhAAAIQgAAEIGDVAnPGh9HJlBLacTjPqIOTox05OtgZnYeJ1iUwbMZD1nXCONseKXBgw+s98rhx0BCAQM8TQAZqz7tmOGIIQAACEIAABCAAAQi0W+C+xXEUFuhqdP2rRobQ61+cpCffOkRJ5y4aXQYTIQABCEAAAhCAgLUJIAPV2q44zhcCEIAABCAAAQhAwKoFXJzs6PE74unR1w5QTW2D1iK6lzv9YUEfargUS9sO5tK7q86Qq7MdLZ4ZTcP6+2mXwwcIQAACEIAABCBgbQLIQLW2K47zhQAEIAABCEAAAhCweoHwIDe6b1E/PYeFTbVP7WxtaMrwYPrPYyNp3uQIWr4umf70yj7alZRPjY2mB6DS2yC+QAACEIAABCAAAQsRQAaqhVxInAYEIAABCEAAAhCAAATaIjAxMYhOppbQ+t+yKCzIlcYMCtBb3VYEUscnBMrXnmP5tHJjOn3+Ywotmh5F48R0DrSiQQACEIAABCAAAWsQQADVGq4yzhECEIAABCAAAQhAAAJGBO6cH0vnMkpp7oQwsrFpOSA6Kj6A+HXwVKEMpH6xPpUWTo+kScOCyN4OndqM0GISBCAAAQhAAAIWJIAAqgVdTJwKBCAAAQhAAAIQgAAE2iLgYG9LT4h6qN4eTmatlhjnR/w6kVJCX/2cKl5pdN3UCJo+KoR4W2gQgAAEIAABCEDAEgUQQLXEq4pzggAEIAABCEAAAhCAgJkCfl7OZi6pW2xAjBf9694EOnO+lFZsSJNZqddNCacZY3qRs6OdbkF8ggAEIAABCEAAAhYggACqBVxEnAIEIAABCEAAAhCAAAS6QqBvhCf97a7BlJpdTl+LbNRvfjlP8yaG0azxoeTqjF81uuKaYJ8QgAAEIAABCHS+AP5V0/mm2CIEIHCZBA5seP0ybRmbhQAEIAABCECgIwLRvdxlKYDM3ApaIQabWvrMbpo9LpTmimCqh6tDRzaNdSEAAQhAAAIQgECXC6BQUZdfAhwABCAAAQhAAAIQgAAELEMgLMiNHl4ygF56aBgVFFfTvc/uoeXrkqm4rNYyThBnAQEIQAACEICAVQogA9UqLztOGgI9SyDj2JqedcA4WghAAAIQgICVCwT7udD9N/anGy9W07ebz9Oy5/fSlOFBdO3UcGpPzVUr58TpQwACEIAABCDQxQLIQO3iC4DdQwACEIAABCAAAQhAwFIFAnycaen1femNx0eQja0NPfjifnp75WnKLaqy1FPGeUEAAhCAAAQgYIECCKBa4EXFKUEAAhCAAAQgAAEIQKA7Cfh4OtGd82Pp7b+OkjVRH33tAP3ny5OUlVfZnQ4TxwIBCEAAAhCAAASMCiCAapQFEyEAAQhAAAIQgAAEIACBzhbwcHOgJXNi6J2/jqYgXxf665uH6JXlxyn9Qnln7wrbgwAEIAABCEAAAp0mgBqonUaJDUEAAhCAAAQgAAEIQAAC5gi4udjT4plRNG9yOP30WyY99c4R6hfpSQunR1FsuIc5m8AyEIAABCAAAQhA4IoJIIB6xaixIwhAAAIQgAAEIAABCEBALeDiZEfXTY2kORPCacOuLHruoySKDHaTgdT+0V7qRfEZAhCAAAQgAAEIdJkAAqhdRo8dQwACEIAABCAAAQhAAAIs4OhgS3MnhtPMsaG0eV8Ovfb5CdnFf9GMSBoU6wMkCEAAAhCAAAQg0KUCCKB2KT92DgEIQAACEIAABCAAAQgoAg72tjRzTC+aNiqEth3MpXdWnSE3FwdaLAKpw/r7KYvhHQIQgAAEIAABCFxRAQRQryg3dgYBCEAAAhCAAAQgAAEItCZgZ2tDU4YH06TEINp5NJ+Wr0umz39MoYUzomh0vD/Z2Ni0tgnMhwAEIAABCEAAAp0mgABqp1FiQxCAAAQgAAEIQAACEIBAZwrYikDq+IRAGjckgPYeL6CVG9PpCw6kTo+icWI6B1rRIAABCEAAAhCAwOUWQAD1cgtj+xCAAAQgAAEIQAACEIBAhwQ443RUfIB8HTxVKAOpX/6USjdMi6RJw4LI3s62Q9vHyhCAAAQgAAEIQMCUAAKopnQwDwIQgAAEIAABCEAAAhDoVgKJcX7Er+PJxfT1hjT66uc0WnBVBE0bGUJcQxUNAhCAAAQgAAEIdLYAAqidLYrtQQACEIAABCAAAQhAAAKXXWBgb2/6170JdOZ8Ka0QgdQVG9LpuinhNEMMQuXsaHfZ948dQAACEIAABCBgPQIIoFrPtcaZQgACEIAABCAAAQhAwOIE+kZ40t/uGkyp2eX0tchG/eaX8zRvYhjNGh9Krs74dcfiLjhOCAIQgAAEINAFAujj0gXo2CUEIAABCEAAAhCAAAQg0LkC0b3c6Yk74unp+xIoPaeClj6zm7hOanllfefuCFuDAAQgAAEIQMDqBBBAtbpLjhOGAAQgAAEIQAACEICA5QqEB7nRw0sG0IsPJlJBcTXd8+xuWr4umYrLai33pHFmEIAABCAAAQhcVgEEUC8rLzYOAQhAAAIQgAAEIAABCHSFQIi/K91/Y3967ZHhVFnTQMue30sffHeWCkuqu+JwsE8IQAACEIAABHqwAAKoPfji4dAhAAEIQAACEIAABCAAAdMCAT7OtPT6vvTG4yPIxtaGHnxxP7298jTlFlWZXhFzIQABCEAAAhCAQJMAqqrjRwECEIAABCAAAQhAAAIQsHgBH08nunN+LN1wVSR9vzWDHnn1AI0c6EfXi++hga4Wf/44QQhAAALdRSA1NZW+//57unTpkjwkGxsbcnV1pX79+tH48ePJzs6uuxyqWcexZcsWWr9+PcXExNA999xj1jpYqOcJIIDa864ZjhgCEIAABCAAAQhAAAIQaKeAp7sDLZkTQ9dNjaB12zLpr28eosF9vOmGaZEUGeLezq1iNQhAAAIQMFfg2Wefpffff9/o4qGhoXLe1VdfbXR+Z07cu3cvFRQU0IQJE8jDw6PNm7548SI98sgj9NFHH8l1+/fvjwBqmxV7zgoIoPaca4UjhQAEIAABCEAAAhCAAAQ6ScDNxZ4Wz4yieZPD6affMumpd45Qv0hPWjg9imLD2/6LdCcdFjYDAQhAwOIF6uvr5TlyxulNN91EtbW1dO7cOVq7di1lZWXR3LlzaceOHTR69OjLanH99ddTZmYmffPNN7RgwYI27WvVqlW0bNkyys3NbdN6WLjnCiCA2nOvHY4cAhCAAAQgAAEIQAACJgWcXb3JN6S/GIU+hS41NorukppXQyM1fb4kpiufxbymz3cv6EteIlPTGpqLk53IRo2kORPCaMOubHruoySKDHaTgdT+0V7WQIBzhAAEINAlAoMGDaKnnnpKu++DBw/S5MmTqaysjJ5++mlat26ddl53+lBYWEgLFy6Uh7RkyRIKDAykV199tTsdIo7lMggggHoZULFJCEAAAhCAAAQgAAEIdAeB6spicvMKpm82p5t9OEP7+VpN8FSN4uhgR3MnhtPMsaG0eV8Ovfb5CQrydaFFMyJpUKyPelF8hgAEIACByyCQmJhI8+fPp88++4wOHTrUbA9JSUn022+/0dGjR8ne3p4GDhxIU6dOpT59+jRblrfB2az33nsvHT58WG6TF7rjjjuooqKCTp06RSUlJXI9DtRmZ2fLz5z9GhUVJT+39Iezs7M8Tu6+z93/X3755ZYWxXQLEkAA1YIuJk4FAhCAAAQgAAEIQAAChgKpSetp6nUPUmFxjeEso9+5C7s1Nwd7W5o5phdNGxlC2w7l0jurzpCbiwMtFoHUYf39rJkG5w4BCEDgsguEhYXJfSgDTPGXuro6+vvf/04vvfSSduAp5UCcnJyIa6o+/PDDyiT5zhmsp0+fpqKiIhngVLbHy588eZJ++eUX7fJcw1SpY+rg4EBLly7VzjP2wc3NjVavXm1sFqZZsAACqBZ8cXFqEIAABCAAAQhAAAIQqK+rpsduixeDJR2kBu67b6INjPGmATHots5EdnY2NGV4ME1KDKKdR/Pp03XJ9PmPKbRwRhSNjvcnHjUaDQIQgAAEOlfgwIEDcoNxcXHaDf/73/+mF154QX6/+eabadasWTJ79JNPPqF9+/bJgZy4nuqcOXO06ygfXnzxRXJ0dKS77rqLqqqqiAd64izTGTNmEG+3vLyceJtDhgyRq1yJwauUY8N7zxJAALVnXS8cLQQgAAEIQAACEIAABNoswIMj3Tk/lt779qzJdbm7Opq+gK2tDY1PCKRxQwJo7/ECWrkxnb4QgdRFIpA6dkgg2Yn5aBCAAAQg0DEBzhB95ZVXaOPGjXJDHOTkxoM0KfVFH3/8cXr++efldP6Du+NPnDiROOj6t7/9zWgA1dbWVg4SpWxPWXnmzJn0xhtvyAAqDybV1kGklO3g3XoEEEC1nmuNM4UABCAAAQhAAAIQsGKBOePD6GRKCe04nGdUwcnRjrgOKJpxAc44HRUfIF8HTxWKQOp5+mJ9Kt0wLZImDwuWGavG18RUCEAAAhAwJrB9+3aaN2+eDGJyt/qcnBy52NixY+mhhx6Sn7du3SprlnLdUQ6gqpurqys98MADdNttt9GRI0dkhqmLi4t6EVq2bJnMONWbiC8QaIeAbTvWwSoQgAAEIAABCEAAAhCAQA8UuG9xHIUFuho98qtEzc/XvzhJT751iJLOXTS6DCZqBBLj/Oi5+4cSe249kEv3PLub1u/Morr6SyCCAAQgAAEzBTi7dO3atbRlyxYZPPX39yeuXcr1Se3sNA/0zp07J7cWGxtLPj7NB/QbNmyYnN/Y2EipqanN9jx8+PBm01qbMGXKFOLMVfWLB63KzMxsbVXMt2ABZKBa8MXFqUEAAhCAAAQgAAEIQEAt4OJkR4/fEU+PvnaAamobtLOie7nTHxb0oYZLsbTtYC69KwZOcnW2o8UzozFwklap+Yf43t4Uf28CnU4vpRUb0sQrna6bEk4zxCBUziKjFw0CXS0wf3I4TRkRTNn5lfTix8e7+nCwfwjoCXD3ex4AimuU9u7dm3x9ffXm85e8PE2vCS8v4/W5eVAopdXW1iofO/QeFBREoaGhetvggC4PMIVmvQIIoFrvtceZQwACEIAABCAAAQhYoUB4kBvdt6gfvfrZCe3ZL2yqfcr1PNUDJy0XAyd91lTvEwMnabmafeAas3+/ezClZJXJIOo3v5yneZPCaNa4UBGIxq9czcAwQSsQHuxGdy+IpdgwTxl0z7tYTc9/fIzSssq1y7T3A9fvvX5qBHm6O1I9sqPby4j1LqNAYKCoLz1unMk9hIWFyfkXLlwwupwSYOWZERERRpdp68SvvvqqratgeSsQwP/NreAi4xQhAAEIQAACEIAABCCgFpgoRpY/mVpC63/LorAgVxozKEA9W3Rb1AycxIMn7TmWLwdO4hHoF02PonFiGgZO0uPSfokJ9aAnRIZvRm6FNLvnmd0yiHrNxHByd8WvXlqoLvwQFepOD97UXx7B26tO05m00i47Gns7G/rn0sHk5+WsPYZgPxfydncgDzd7mjshnEYM9KMgXxdRn9iW8oqqRbZzCX35Uxrli0Bray2xv68MnvJynFmOBoGeKBATEyMPOyUlhZKSkmjQoEF6p7Fq1Sr5nbNGjWWw6i1s8IW76HNTB2ENFsFXCGgF8H9xLQU+QAACEIAABCAAAQhAwHoE7pwfS+cySkWQJox4gKSWmv7ASWIEejFw0sLpkTRpWBDZ22FIBWNunOX78JIBdKGgklZtSpc1UmeODqF5kyPISwTH0LpOgIOTXLKCm6+nY9cdiNhzQpyvNni693gB/bwri3qHeVB+cQ299fgobfBTOchQUb+YX/x38oGX9lKhWM5Umyq67nNruNSIAKopKMzr1gIzZswgDo5yvdTf//739OOPPxLXSuX2/fff0zvvvCM/P/zww/K9LX9wBuz58+dp8+bNdPfdd2tXVeqvaifgAwSEAAKo+DGAAAQgAAEIQAACEICAFQo42NvKbElvD139OFMMPHASv06klNBXP6eKVxpdJ7oHTx8VQrwttOYCIf6udP+N/elGkS3I3frve26PKJEQRNdODdcGzpqvhSnWIhDoo8s8/VSUy8jMraQDJ4pkVjh3u+fA566j+XTkTBG5udjTgima7vjK5/e+O9silZuLHQ0foAkyHRbrF5fVtbgsZkCgOwu4u7vTM888IwOc+/btI+7SP3jwYLp48SIpA0wNHTqUHnjggTafxpgxY2j//v20cuVK2r17N1VUVNCrr75Kt912m8ltNTQ00IABA6i8XFNqo7RUk8l+6tQpbe1UzobljFk0yxFAANVyriXOBAIQgAAEIAABCEAAAm0SUHcdNnfFATFe9C8xcNKZ85qBk1ZuxMBJrdkFiEDZPTf0pcWi1ux3WzLowRf30/ihgSIAHS67Z7e2PuZbpoC6rENRiS6blD9/t+U8bdmXQ+dzKrQnz4OVPbcsUX6PCnXTTjf2YcyQQHJserDx63503zdmhGldJ8CDRnFT3ls7Es485cDpgw8+SGfOnCEOpHILCAigJUuW0HPPPUfqwaR4njLgk/LO0wzbk08+KQOou3btooyMDFG+xpY4K7W11tjYSFlZWTLgql6Wp2dnZ8tJnTWglXr7+Ny1Agigdq0/9g4BCEAAAhCAAAQgAIEeKdA3wpP+dtdgSs0up69FNqocOGmiGDhpPAZOaumC+ng6EZdOuOGqSPp+awY98uoBGilqXN4wLZJ6Bbi2tBqmd6GAt4eDCHxHUV8xUFivADcqKa8Vg4WV0w/bM+l4crHekYWIazhrbC8a3NeHArydyd7ehgou1tDh00X01YZUKquol8v3ifCgW+bGUFSwppQAT/ybGISsvuESnU4rI643/MnaZL1t85d08XdNaXatlM+YOlzTfb+qpoH2JOUrq+EdAt1C4O2336YXXniBPD09zT6emTNnEmd4cpYoB1GDg4MpJCSkxfUPHDhAVVVV5OXl1eIyXBpg586dsjxATk4OhYeHm1VH1d7eXpt92uLGMcPiBBBAtbhLihOCAAQgAAEIQAACEIDAlRPgepI8cFKmGDhphchGXSoGTpotRp+fK4KpHq6o92nsSniKOpxL5sTIEgjrtmXSE/85SENE0I0DqZEhuqCasXUx7coJ9I3ypCfvHCTq1upqpbo4uRAP9DQ63p/e+eYMbdilyTbz93aiNx4b0awusFK3lIOqD760jy6JbvnBorTD4FhfvRMZEO0tvytZo3ozm75MbgqK8tdMVWaq4bKBvs40IEazvZ1H8qi27pLhIvgOgS4V4ExPb2/Nz2hbD8TNzY24y35rjbNbzc1w5UAqv9AgYEoAAVRTOpgHAQhAAAIQgAAEIAABCJglENY0cFJOYZUYgT6N7n12D/HASddMCidvD10AyqyNWclCXMty8cwoMbhUOK3fkUlPvXOE+olMx0Ui45EHE0LrOgEeV+2+RXEyeMrdclf/mkGHThcSDxC2ZHZvcnGyo9uv6U0coCyvrCcPNwcZPC0VGaob9lygU2kl5OxoJ7NXeR1+jRDZxnuSCujYuYv00ffnaMyQAIqL1GTHfb4+herqL+l12edAqKODraiX6yTW9RfZraESpKGhkX78LatFHB7gTWm/HshRPuIdAhCAAAQ6IIAAagfwsCoEIAABCEAAAtYrcGDD69Z78jhzCJgQ4Ow8ZeCkbzefp2XP78XASSa8eBYH4xaIbv2ctcsZjc98kERRIhN14fRI6h/dcvfTVjaL2R0QGDXInyKDNXVGObP6y59S5daOnikmV2c7+t2s3uLdnkaKTNTNe3Mo/UIF/fPdw3QytYRqanUZn9n5lfTqwyPkuqEBLvL9YmktrREBWSdHW20Alb+rM0V5YLZ3nxxNNhzJNWhvrTxFKZm67vwGs2nKCE33/YLiahGsLTacje8QgAAEINAOAQRQ24GGVSAAAQhAAAIQgAAEIAAB0wI8cNLS6/vSIhEEVAZOGpcQIAKFERg4qQU6Rwc7EUQNp5ki03CzGEDotc9PSKtFYvCpQbE+LayFyZdDILqXLgP4dHoJRYfqSiuoR7TnBwbcuGv+4dMX9Q6FB4kqLqvVTnNzMb+kBWe91tU3igzU5gHUu67tQ5XV9bT7aIF228qHPlyrVZQI4PbrgVwSm0GDAAQgAIFOEEAAtRMQsQkIQAACEIAABKxHIOPYGus5WZwpBDpBQBk4aaGo78lZdo++doBGDPCj60XGJdeHRGsuwNmHM8f0omkjQ2jboVx6e+UZ0UXcXgSjo2hYf7/mK2BKpwuEBDhrt/mPu4doPxt+8BBBUqX5i4cGC6aE03Dx8+3n5Ux2ds2Dn8qyrb3Xi276i/+ylexEBiqXB4gMcZM1c4f08ZWZrw/dPICWZewVg1RV621qirr7/n5039fDwRcIQAACHRDQ3e07sBGsCgEIQAACEIAABCAAAQhAwJQAB4HUAyf99c1DNLiPNwZOMoHGAbgpYuCgSYlB9JuotfnpumT6QtTKvEEEUnkQI2Pdu01sDrPaIOAksoGVlnahvMVMzqNNXeR5EKnnlg0lzrxWGmeJ1tQ2ED9EaE9rFJUA6qmRuMs/v46cvUjP/HGoHCCK66sm9POhTbsvaDfNPy8TxM8Kt+TMUjGwW6V2Hj5AAAIQgEDHBBBA7Zgf1oYABCAAAQhAAAIQgAAE2iCgHjjpp990AyctFEHB2HBdt+k2bNLiF7W1FYGxoUE0PiGQ9h4vEIN0iZqc61NljdRxQwKJ56N1rkB+kS6z8+//PURlFfUmdzBtVIg2ePrzrixZM1Xp6v/NS5M7lI2q7JgDqvtPFMgAKk+zM7juw/r7koerpkzAFlECAg0CEIAABDpPwLbzNoUtQQACEIAABCAAAQhAAAIQME+AB066bmok/e9vY0R9T2967qMk+tf/jshBeMzbgvUtxRmno+ID6OU/Dafb5/WmH3dk0X0v7KFf9l4gHpndnMYDFX0sRoBHMy1wobBKu8CkYZpBmbQTjHyICdMF/9/79qyofVonl/ITmalGxoEysgXdJC8PBwr01WWy6uYQ9YnUDSpWUaUf1J0yIkQuyj8L2w7lqVfDZwhAAAIQ6KAAMlA7CIjVIQABCEAAAhCAAAQgAIH2Czg62GLgpHbwJcb5Eb+OJRfTig1p9NXPaXKALq6byjVUW2ob91yg1aIWbZAY/GjWuNCWFrOK6UP7+YosTn0rHrxpV1I+7UkqoNvmxopBnGzpljkxVN9wiXYeyafyynoKC3Kl0YP8ZSboy58el9PKKjQBU4abNymMftqZTbERHvTgTf3bnCG8UNQHnj0+TB7H5n0XRFf8KuIHDrPG9aIxgwLkteHjOZVWqr1OnNk9vKk+7qEzRVRarjse7UL4AAEIQAAC7RZAALXddFgRAhCAAAQgAAEIQAACEOgsAe3ASaIr9LaDufTOqjPEo5YvFiPQY+CklpXje3tT/L0JdDq9VAZSV2xIp+vEQEYzxCBUXCdT3Tjo9t3mdDnp/dVnZcmEPhGe6kWs6vPMMaFisC79IHLDpUb6/f/7jQqKa2jVL2l089UxxPVQ77m+n3wZAvHPKAdVubTCVSJ4ze1WEXjlV3sbJxNzWQYuz8AvY235D8l6A0iNHxqoDZyj+74xMUyDAAQg0DEB/cdtHdsW1oYABCAAAQhAAAIQgAAEINAhAa7ryAMnvfHYSJnJt1wMnPTwK/tkNh5nB6IZF+gX6Ul/v3uweA2iEykltPTp3fTNL+nEAxkpbcv+XBkY5O/czfvFT45TWaV1ZSrmXaz5/+3dCXhV1dXw8RUCmSAkgYQQIAQIkxAGBQVFxQnQiqhUQa3W1g7aqtVqB62vte/7VdtqHWprawdbh6oVcKozIFqxCMg8iUwhBAhDgEBIIBN8e+2bc3PuzUAgB8g9+W+fcM89w75n/06IDytrry1lFVUOSa1XrSYbHR34Z7IGox8xGabbd9dM53cuKCouk3dmb5adewK1UjVj9bm31smBspq+KyoPyezF20ymaJG9TIOz7uaUXdD9h1zf2298tEmmz91a69no978uaPXg35fJmx9vdndl/s4EFo/S5z1/RWHIMd4ggAACCDRdIMr8EA79Kd70PukBAQQQQAABBBBAAAEEEPBEQP+54iycpCua62JTo8xiSuEL6HjyYT7qJH9biUydmSdLvtxtp+pfaqaE/+R3C2Wbq7anDve0/h1s4FXrq2rLzLncvg4be6d95Y+AgE6h75waL/qP573F5bJnX3mdNNHRUbY8QqyZ+q/PoNIEqjWbND62lQlmV0n4v74T4qKlovKw+TIrRNXR0lLipH27NqK1a7cVHqjzPC3H8Of7RtqrZ8zbKk+98mUdPflz18LpT9iB5a94058DZFQIINBsBAigNptHwY0ggAACCCCAAAIIIIBAQwKLVu+yK9AXmQDWVRdlyehh6dK6Oluwoeta8rGCwlKZZgKpny7ZKRqArqtdO66nTB7Xwx4igFqXUPPep89On6G2nz21SFat39u8b9jDuyOA6iEmXSGAQIMCTOFvkIeDCCCAAAIIIIAAAggg0FwEdNGkX91+mtw2ub/8Z+F2+d5D8+S9OVvqzMprLvd8su8jIzXBeqWZ1eDra/+anitLzcJDtMgUyOmdbG98hyk10JKCp5H5tLhrBBCIVAEWkYrUJ8d9I4AAAggggAACCCDQQgUGmoWT/q964aSpMzaaxZPqXziphRKFDHvOsp2yeUdpyD73G51W/ugLq+Sxu4e7d7MdIQJ/mrpG0jvEydadtWu1RsgQuE0EEECg2QsQQG32j4gbRAABBBBAAAEEEEAAgboEdOGk//n2YMndul9e+WCjWTRpk0w4t5tccnZXSYjjnzqO2bQZec5mva/7SirMolKrRKLMJMXDddfjrPdiDpxUga0mOK5fNASao4BTFqQ53hv35I1AS6lBzBR+b75f6AUBBBBAAAEEEEAAAQROkkDPLu3knm/myC9vHSp5ZuGemx+cKy+/nyv7S2tWoD9Jt3bSP/bzlYU2wNyYG1mTt1e69T2nMadyDgIIIIAAAi1KgF/LtqjHzWARQAABBBBAAAEEEPCvQGZ6W7nr+gHiLJx0y0NzZdzIDLlsdKYkJ8b4d+ANjGyKKXFwNC2t+xAp3rP5aC7hXAQQQOCIAsPG3nnEczghsgScRdwi666P/W4JoB67HVcigAACCCCAAAIIIIBAMxTQhZNuv+YUuWbPQXlt1ia57dfz5fzh6XLFBZnSMSmuGd7x8bmlQ4cOy903DJToVlHSysw9bBWlr61c21HmmJm1b/frdpQw3fb4PAt6RQABBBCIbAECqJH9/Lh7BBBAAAEEEEAAAQQQqEcgLSVObv5qX5k0Jkte/yhf7nh4gYwamiYTL+xuFt2Jr+cq/+xuZQKinTv6f5z+eWKMBAEEEECguQpQA7W5PhnuCwEEEEAAAQQQQAABBDwRSGkfKzdd3lv+eO8ISUxoI3c/tlCefPkL2cLCO5740gkCCCCAAAJ+FyCA6vcnzPgQQAABBBBAAAEEEEDACrRv10auv7SX/Pm+kTYD9Wd/WCyPvrBS8gr2I4QAAggggAACCNQrwBT+emk4gAACCCCAAAIIIIAAAn4UaBvfWiaP6yETzsuU9/+7WR54eqn0y2ovV4/pIb0zE/04ZMZ0EgT+7/tDbKB+5rytMnXGppNwB3wkAggggIBXAgRQvZKkHwQQQAABBBBAAAEEEIgogfjYaLnygiy59JxuMv2zrfKrfyyXrM5tbSD1lJ5JETUWbrb5CWR1bidJ7WJMHdoET27u/NM7y7BTOkr/Hu0lsW0b2bh1v6zN2yfTPsyTouKKkM+4xvyCYHCflJB97jezFmyTmXML3Lt0CztMAAAvWUlEQVTYRsB3AkmJbY56TAfLqqSs/JC9LrFta7PoXlRIH7o4X3FJZci+ut7odXp9Y5r2p/1qi41pJXHm/03aSg9USUVl4F7sDtcfjT3PdQmbTRRo3NNs4odwOQIIIIAAAggggAACCCDQXAVi2kTL+HMzZdxZXWXW59vk8RdX2czBSWOzZFDv+oNQzXU83Jf/BG68LFuuPL97yMD6ZSWZzOkkOW1AR/n5n5ZK4Z6DweOjhnaSzPS2wffhG5tN/V8CqOEqvPeTQF/zi4aHfzDsqIc0Z9kOefjZlZLSPkb+8YtRdV5/wARZt+06IJ8s3CbvfLpFyitqBzmvOK+bfH187zqvD9/5/Nvr5LVZ+Xb3rZP6ybmndbbb81cWykPPLA8/3QR1RR6+c7j9hZ8e/NcHG81Xbq3z2OGtAAFUbz3pDQEEEEAAAQQQQAABBCJUoE3rVjLuzC5y0RkZ8sni7fL0tDXSNr6NTDaBVM38oyFwMgRGD0sPBk/37i+XGfMKZFvhAblkVBfJ7tZeuqQmyHcn9qkz0KILpS1bu7vWbX+2fGetfexAwE8CrcMyRxs7ttbRgaWCoqNDM0/d1+vshZ5d2pmv3ubvYVe5+/EFtbJSG7re3Zduu8997aN8GTU0XaLN/Z8xMFWG9kuRJV/uCbnkK+YzdbaEtuLSCnnXlKKhHX8BAqjH35hPQAABBBBAAAEEEEAAgQgS0H/Mnj+8s4w+LV3mLNspz7+9Xl58d4NcPbaHjMxJlaio+v9hHUHD5FYjRODCEYFstKqqw7bMxOrcffbOP12yQ5788enSqUO8nNqvgwn2R0uJmfLrbnrOy++TmeY2WbG+SHKyk9272PahQP72EnnxvQ21RnaZKdnS3pTW0PYfk0Gq2djutmFLsfut3dYM0xfeXS8ak01OjLXlMbK7Bepl69+/2yb3l1/9fUWt65wdq/P2ysJVu5y3tV4XrKr5JcfGLfvlndmbZcLoTHvet67oI3c88nlwir8uhnjtxb2Cffz9zXWyb39oCY/gQTY8FSCA6iknnSGAAAIIIIAAAggggIBfBLSG3dlmKvSoIWmiUymnzsiTl0wgdZIJpJ41pJPNEPLLWP02jnNN8HvC6G6SV1AiU2fmyaQxgXIMmjmWa2qHvvffLTJnae0szHYJreWqC7OkT1aiyfBqJ1WmLuEmE4hZtX6vTDP91FWPsJ+ZKnz5ed2lb/dE0f5Xm7qk737acEZYsqnNONl8H/U1i5d1SWsrmlm6oTpwstIE+Jym04gHZQfKSCxcvUuc4Kke11qNM8wCVV+7JFs0e/q0/h1l9uIdzqW8ugQOHz4smnWrf4f37CuXZ/+37qnZrkvYbECgsOigCSTGiJOt2cCpJ+2Q1hXV5x3eBvdNkUHVAdS3zfR7rSN8pLbTjPet/4T+nf76+F4y0dTQ1qaZolqT1KmdGt7ffPO950zRDz9W1/uXzC89Rg1Nk45JcbYUx6XndA1+/o3js80vSwKhvKUmu/wjU3aGdmIECKCeGGc+BQEEEEAAAQQQQAABBCJUQDNOR+Sk2a9FJoilK6q/9F6uXHVRlpw3rHPI9MsIHaLvbjsjLV56Z7a3XyMHpdpSDM4gta6tfmmt2/8s3O7sluzMRPnZTTk2aBHcaTY02KJBTA1o/PxPS2T33vLg4RGm7x/dMNAGMJ2dw0wg8zSTEVpfprLWZrzvpkF2gSnnmvjYeLPYVLzNcH761TV2UTM9lpEaH+xn+brQabx6/IvqbFTd7pAUqy80l4AGwGebchzTTCDNyTTEyQV0jJufmV8+vGWyJK+9uKep1xmYbn6MXUXsZf98N9cuQBhramjr3/XuZkr92k21s1ePZYD6y5G/vbFOfnpjjr38mrE97c+qdPMz4gKzmJw2zYr945Q1dps/TowAAdQT48ynIIAAAggggAACCCCAgA8ENMtPv3Qa8JTpunDHRpl4YXdbN1WzAGnNT0Dr2OqCL5qd2Tk1Ts4x9QW1TTYr1TsBVK3K8INrTwkGT5es2W0zVDWjVGscanCzW6e2Jtuzl/z+X6vt9VrqQWuPOs9dF5/ZZDJeRwxKs/UR7Ulhf+jn3Dqpvw2ealbkGx/ny+Ivd9kss+u/km0zWL9hFoyas3SH7C+ttFl+ThcFpu5peNu+62BwV2Lb2iuOa5bryMFpdvrvdmOgGbnvmOxYv0/51UzhWQu2yasma3jH7hojxdLakrSmCWhgWl1/99IXNjNbA6maqV/fLw2a9mnN8+pDxqDkQKVoAFVbu4Taf/+acucapNasc/2FjGac3nBpL+nVNTFo/K8PNoj+naadOAECqCfOmk9CAAEEEEAAAQQQQAABnwhoDcWc7w2VL830Tw2kTpmeZxb6yZSxZhGquJjAP6h9MtSIH8a6/H3ywNNLgvVBdeqxZpTq4ksaINUVtc80JRmcRVl0qvfDz64QE9+07WNTJ/GJu083q3LH2tq4z5mauBqAHGHq4eoUW22zF2+TR1/4wm7rVP+ffCPHTuu1O1x/aMaq8zlTTFakU5902ZoiSYiLttPxE+Jayxmm71nzt5lAa01QpvRgpaunwOaBspp9CWYsTqu+dfvW+Txd9GakCe5qbcXHX1wp81fUX5PR6SfSXssrqmz2ri7Es3tvWZ23r6U5aE0T0ACq03Shst8+v1KmZbSV677Sq87ve+dcP71qNmhydSkAHdeOPaGBevdYB/XpIHtNSYG6mgZi9Rc5+hre/vLqWvn9T1Ikpk0rGTOiS/CwliHRX77QTqwAAdQT682nIYAAAggggAACCCCAgI8E+pkalvd/Z7CpX1lsg6ivfrjJ1t7UrEUNhNFOvsD//mVpMHiqd7Ng5a5gXdFkExQ9sLNUelcvCKPHXzEBcSd4qu/3FlfIhyaYqSUbNPjWxZQH0ABqt/QEPWzbGx9vdjal0iz29Ot/rJAX/t/ZwVqFzsGeXQILz+j7L83CMj27tnMOSZH5HKdpxqu26OoVwXU7yvwX3tz3WWam9DrtFZMZ3bVTvM1i1azX1OQ4M9W6kw34atD4DpNte9tv5tt6oM41kfyqwWWta/tvU6dS68k21FqRKN4QT6OO1RXs22iymx96Zrn0MbWArzeB1CF9OzSqr0g7qbXJPNfaxd/9al/780Dvf/OOEtkathiVe1y6yJt+1ddWbdhbZzapZphOmZFrPLODl6r9H15ZbQKuwV1snCAB/o9+gqD5GAQQQAABBBBAAAEEEPCvgE6tvOebOaIrP+vCJbc8ONdO/b7s3EwztZN/dp3MJ196sCrk490BNg2GaNOgqLbKqkOSZ7K7wptmfDktqTrrLC0lkH2q+3PNAlDupkEO7Su8ZaTVXPPz7wwJPxx8n1j9PaNThJ2WEF+TYers0zICTnMHtf67pPZiUi+aBdAevO1U6ZeVZGvCDu6TEixh4PQRia9t4hPtKuU7G8gAdI9rp5l6fucj823wSwPirUxEVaf1a2BVXwPb+l63A/sC24F97m3nXPtqItXR5hHpNHbbj3k2rew+p+9W1X3qeXpM7Pva/Tn3EThfj4ffW8jnOvcYZcZh+tWAuX5f2+vMG331urkzUMP71jqgDzy9VAb2SpbrzbRzP7SuaQny4oPnWFv9BYS7VMGefWW2rIf7lxlHO2Yt51Ffmz63ICSAmretRNbne1Nrtb7PZH/dAvyfvG4X9iKAAAIIIIAAAggggAACRy2Qmd5W7rp+gBQUltragLc8NFfGjcyQCWaVdvd07KPumAs8E6gjrilx1dPfNXu0rliGBk2c5gQ74mMD/5zWwKU7eOmcV9erUy9Rj20s2F/nZ+mxZeuK9EX2ldRkU7ZvG2P3uf9wB3HdgWH3Oc62ju21WZvk3m8Osrv88v1YcaBYHrtruB2b1nfVxXUaamkd4uSOrw2wz0wDgc7z04y+KvOHs09f9XvFOR66X68zx8wJetweMzGwKmOs21qD9WCZOcd8M9l95lign0D/us+cFvJZoZ/jPqafEbi+9j247tH5LNOxc0/6varfzxqADQRqnWBxIMjrDs4Gg70m3uoEgG0w2AZ7nesCx7Sm8JHayg1Fcu/vF0nvU6+QrevnHOn0Zn9c65CGN818/oEJxhfXMz3fOX/GvK02Q9p5737V74XwOr3u49eZ+rLupqU4TumVJF+YrFXaiRWo/R1wYj+fT0MAAQQQQAABBBBAAAEEfCeQYepr3n7NKXKNyYrTaf23/mqeqZ+ZLldckBmsm+m7QUfwgDQrUZvWr01KbGOn7buH484i3mum72srKg4ENzUIlWqyUQvDMiDryvtzPkevv/+Pi48YeHEv9pSTnSQfzivQS4NNS0g4rbCo7pqfznF91exEpzmLXznvI/lVF9C60Sy+NWF0N5k6c5Opg7rFllKoa0z6jDUI1VKaBlEDweHqQK8rwKoBY+eYnucEgG1w1wZ5A/vsMdd1+n1Y16Jm4aaaEVtetl8qK+qvDxp+TXN8r4HrmSYIqrVIB/VOsSUx9D61TMvXx2fLU6982eBtF5gyIRs2h2apN3hB9cF+PdrLOFNXO7zdclU/+eFv59tnF36M98dPgADq8bOlZwQQQAABBBBAAAEEEGjhApoheMtVfWXS2Cx5wyxsc8fDC+TsUzvJlSaQmt4hMG28hRM1i+Fv312TUTdmRIbJHt4UvC8zM1rGjAwEMTSzb6sJhmhzTxnXFcjf/Dg/eI0G8tq7FphxDhS4MvdGD+ssb3+y2TlU5+t6E3QpLq2QRLPC9/BTdDXu6GA9V70vXbRM28HyKlm0enedfbh3nj+8c/CtZsD6relCX9+d2Mcu6Ka1bGd9XlAryKTZlS2pBbJITeaoCWZ61VasDWRI19efBuf178xE83Pu1LMfr++0iNmvGbd/mromeL9nmb/vP7phoM3q1cWdPlm0XZYfwSR4cSM39HndOql/sFzAW5/k27IIvUy9Zl0Y7rJzu5mfOQ3//GjkR3FaIwXMj1waAggggAACCCCAAAIIIIDA8RToYAI7N13eW/547whpZ6aC3v3YQnny5S+Cwbjj+dn0fWSB2Yt3BmuWXntxL7ni/EyzCFOC9DYL4jzw3SGiNRC1aUDOma47d3mhmR5t5keb9rVLesnoYenS1Sws9e0r+5hn3cfuD/9jnrnGmWJ+g6kPefGoLibQ2sYGYrqbVcw10P6LW4YE6+ZqwHbO0kA900Qzhf++bw+W/j3bS5Y598dfHyg9MgKZlPNW7DRTxgO1Xr85IVv+ev+Z8tULu9tFqjomx0ofk6n6I3P+iJw0e0tFxWWyOte/U4D1Fxe3Te4vT90zwiyelR6SedvC4qfh34KevNeMzLparMnuvfL87ub7b6QNZOviZX5sc5bulHfNomVOu9FkoXrdNPjc3QRKte3ae1BefC9X/vbG2uDHXDOul6S0r13WI3gCG54LkIHqOSkdIoAAAggggAACCCCAAAJ1C2iwTBdWufKC7jb78J4nF5nVqlPsCu9Z1cGwuq9k7/EU0NWudQX3iea5aIbiNy7rbb/cn6kZpy+9nxvcpdd8sni7jD6ts53a+0NTV/NITafZT/two1xngrRaD/WWr/azX+HXtY1vI/tLAwtIvTYrX4YP6GhLPwzomSy/vn1YyOlbTb3d59/eENyn9Vw1gHjDpdn2K3igekODX0+89EUwkzX8uJ/eaykNrUl81UVZ8tJ7G0SD3tG6MhStSQLhAVStDzr+nG4y3mRFarZ0S2ivTM+VC8/IEK2P3DuzvQwf2FEWrNzlydAzzC9srh7TM9jXX19fZ39BssrUPZ2zbIecNbiT/dxvXdlbfvvcquB5bBxfAQKox9eX3hFAAAEEEEAAAQQQQACBWgIacJg8rodZXCpT3jML3+iq1VrPctLYHpJtpmjSmiZQVb1SlNZ0rE4SDXboHNMdurCS055/e71s3lFiskl7htSpLTlQKQu+KJS/vLqmVtDxdy+ttoGNc00Q1VloSrPF3jDT+U/pmWQDHeHBpinT82TLjgOmdmKvWmUcNDP0v0t2hpQH0EDtvb9fLLdf21/6dm9vA696z/vN1P5VJov0j1NWm3qsgbqsun/m/G3SzWTC9s9KDpm2rQsbLV27W557a4Pkm5W8W1LTTL57zOJZ6zcXy8JV3gS5WpJf+Fg1M1pbkilToeUqLhnV1dYDDT/Pz+81E/09k4Wqv3TRdu24np4FUL8/qa/EmDII2hau3iVzl+202/rHs/9eL6cPSBUtk3D2kHSZ3nerLFvTcEmF4MVsNEmAAGqT+LgYAQQQQAABBBBAAAEEEDh2AQ26Tbwwy2ZuTf9sqzz4zHI7LfvqMVk2AHfsPbfsK7WG6bufbjGroQdWJHdr6PTb6372iV0BvazcLG/uarNM8FG/tNZoZ5O9WFxS0eAK2RpI0tqIT09bI5npbaXMrACvAU9tb8/eLAmxq6X0YGBqvetjTJB0h/3S5985NV40HLXXLEq1Z1+5+7Tgtq7Sff9TS0TrnurnaOB3645ALdbgSdUba/P2yX1/WGKzYjUTNT4uWnQxKs2gDQ8mh1/r9/f6ywl+QdH0p5ycGCPfMiVJxp3VxXyfRTe9wwjtQeuSatatBjv1+2rYgA4mQF+7FvHo4Rk2K7y+Ya7ZVCwffb7NHr7gjM4yKDvFbmu5jz+bny3upj8L9HMnXpBld988sZ/84JH5dgEw93lsey9AANV7U3pEAAEEEEAAAQQQQAABBI5KQIMQ48/NNAGJrqbO5jZ5/MVVNjtRa2Lqqs+0oxeoK3Dp9NLQMT2n5ECVrM8vdk4/4qsGJjeFZXUeNrFZ7aehdsDULc3d0vjFnLTPTQWNyx7V4MuWeoKsDd0TxxA4koBmytPE/sLjI1MXedyZXS2HZqHWFUDVRZ/0q76W1mGXDaBqiZebJvQOnjZlRm6dv8CZOiNPLji9syQnxtpazVeams3uhe+CHbDhqQDFPzzlpDMEEEAAAQQQQAABBBBA4NgFdFrmOLOy+p/uHSmaiaTZjT99cqEs/IJpx8euypUIIIBAQKCsvOaXGuWu7XAfLXmhJUC0ua8JP09rFDtlOrQWampKrD3lYFh2e/h17vdl5YF6x7oQXbvqGrJaTuT1j/LdpwW39Rcv/zSLSjntYvOLN9rxF4gyqwYGviOO/2fxCQgggAACCCCAAAIIIIAAAkchoFPE/2tWYZ82M09aR0fJVWN6yMicVLOqeNRR9NL4UzNzLrcnDxt7Z+Mv4kwETpLAwulP2E/OX/HmSboDPvZIAvxMOZJQ5B5vaX//mMIfud+r3DkCCCCAAAIIIIAAAgj4XKCVWRH+nFPT5eyhnWT+ykLRqZsvm8wjrZE6akgn0eM0BBBAAAEEEDi+AkzhP76+9I4AAggggAACCCCAAAIINFlAM05H5KTJb384XL4xIdsukHTrb+bJh/MLgtNMj/QhWhPz2X+vO9JpHEcAAQQQQACBMAEyUMNAeIsAAggggAACCCCAAAIINGeB0/p3FP1asb5IpkzfKP/6YKNMvLC7XHRGhmgN1frajHkF8sbH+ZLeMV4uGUXNvPqc2I8AAggggEC4AAHUcBHeI4AAAggggAACCCCAAAIRIJCTnSw53xsqX+bts4HUKdPzRFdjHmsWoYqLiQ4ZQWXVIXl9Vp7d97c31krvzETp0719yDm8QQABBBBAAIG6Ber/9WTd57MXAQQQQAABBBBAAAEEEECgGQn0y2ov939nsPkaJKs27JWbfzlXXv0wT0oPBlZ21lv9aMF2KSwqs3etK0s//NxKKS6taEaj4FYQQAABBBBovgIEUJvvs+HOEEAAAQQQQAABBBBAAIFGC/Tqmij3fDNHfvn9oZJXUCK3PDhXXn4/V/btr5BpMwPZp05nO/cclMf/uUoOHz7s7OIVAQQQQAABBOoRYAp/PTDsRgABBBBAAAEEEEAAAQQiUSCzc1u56/oBUlBYagOn3/nlZ1JWXlVrKItW75apM/Jk0tgetY6xAwEEEPBSYOH0J7zsjr4QOOECZKCecHI+EAEEEEAAAQQQQAABBBA4/gIZqQly2+T+kpYcW++HvfxBrixds7ve4xxAAAEEEEAAAREyUPkuQAABBBBAAAEEEEAAAQR8KjBn2U7ZvKO03tHpDP5HX1glj909XFKT4+o9z+8HoqJEenVLNCUNRDZsLo6Y4cbGtJLuJuP4YPkhyd9WEjH3zY22HIH8FW+2nMEyUl8LkIHq68fL4BBAAAEEEEAAAQQQQKAlC0wzU/SP1PaVVJhFpVZJZdWhI53q2+PnDe8sj/5wuDx213BJS4mcQPLwAanyyJ3D5ckfny6dOkTOffv2G4mBIYCAbwXIQPXto2VgCCCAAAIIIIAAAggg0JIFPl9ZKLlb9zeKYE3eXnn23+sbda4fT5owOtMOa/vuA6ILbNXV+vdMkhE5qdKzazvp2aWdxMZEy9795XbBrvnG+pOF26W8IhCEHjMyQ8afmymHDh2W599eL4tNvdnwdvs1/aVP9/ZSXFou9/1hSfDwoD7Jotef0iNZkhNjpPRgpeRvL5EP5myV2Yt3BM/TjVUbiuxCYFEmhfb80zvLKx9sDDnOGwQQQAABbwQIoHrjSC8IIIAAAggggAACCCCAQLMSmDJj41HdzzufbpakTtmyd0fLCqRqYFQDoto+DQtQ6j6dJn/j+Gy5ZFRX0UClu8V1iJd083XGwFSZPKaH3PHIfBPwrJIDZVWSZabWa7vlqr5y66/nSWWlqQ9Q3U7P6SgXnpFh323YUpP5e/WY7vK1S7Kd0+xrUrsY0a+c7BTJNmUGnn2r5vns2Vcuq3KLZGCvFLnI9Ddl+kZbhiCkA94ggAACCDRZgABqkwnpAAEEEEAAAQQQQAABBBBoXgKa+Xj3DQMlulWUtDKF21qZwF8rs1GzHWWOiQ0ItjLn6HnaMnNa3krZZw/tFHx4s5eEZnhGGaOHbjvVBC7b23PUdenaPbIuv1iKS8qlc8d4GTk4TTq0j5WOSbGSENfaBlA1EHvZud2kX1aSDbBebjJcX/1wk+0jOjpKbprQO/iZz7yxLrjdq/pzSg5U2GzTouJyGTEoLRjg1UzZ9z/bKtsKDwSv0axUDaBq6QHNXl22pih4jA0EEEAAAW8ECKB640gvCCCAAAIIIIAAAggggECzEdCgqAb3aEcWOHNwqj1pi1lsa+OW0JIHE8w0fCd4WlRcJo/+c5UsXxsaoPzr62vlwhEZcv7wdKkyAVan/eW1tfLbO4fZIPVVF/WQD+cXSFFxhYw/p6tkpCbY0z41AduV62v6W/jFLtm8vVRen5VnA7F60tSZefKoqc3aI6OdCYBH2Wn/7gDqnKU75TtX9rVB8IvMfRBAdZ4ArwgggIB3Aub3aTQEEEAAAQQQQAABBBBAAAEEWp5Al04JJnM0sPiSBjPdLSmxjVwzrqfdpZmnv/jzslrBUz142MRMZ84tsHVMdUq909abLNWZJmiqLT42Wm64NFsS27aWSWMCfR4srzJ1Z2uyT/U87efFdzcEg6e6r6rqsMxbXqibtrVLCM2D2re/wtZC1YMDeyUHTuJPBBBAAAFPBQigespJZwgggAACCCCAAAIIIIAAApEi0NvUFHXaZrNQk7v175FkA5+676MF22RjIxfkcvfxwjsaDK20uy4wizz94uYh0jY+EAB99cONUlhU5j693u2kdm2Cx/aXVAS3nY1NBYF711ICrVuH1ml1zuEVAQQQQODYBQigHrsdVyKAAAIIIIAAAggggAACCESwQI/qxaN0CIV7Q4OZ3TsHptnrsdmLt+vLUTfNDn35g1x7nS5A5ZQD2LbrgLz+UX6j+mttaqaOHBQoM6AXfJm3r9Z1u/YetPv0M3RRKxoCCCCAgLcCobn/3vZNbwgggAACCCCAAAIIIIAAAgg0W4FkM03fabvCskG7d27rHJItO2oWbdKFmu687pTgMWfjYPkh+envFsr+0kDGqbP/ndlb5NKzu4XUpP37m2ulsrKmXqpzbl2vEy/sLsmJsfbQivV7ZMfuQLDUfW5hUU3pgPSOceZ+S92H2UYAAQQQaKIAAdQmAnI5AggggAACCCCAAAIIIIBAZAq0S6gJoO4Oy0BNiK85Vll1KDjAxLYxwbqpwZ3VG8mJMbUCqOHn6Pv42Mb9Uzw7M1F0ASpteg9/eXWt3Q7/o7A6A1X3p7N4WDgP7xFAAIEmCzTup3aTP4YOEEAAAQQQQAABBBBAAAEEEGheArExgap25ZWHTIAyNCN0e2FN1mlGWrw4C0QtWb1LHn1hpYiZLq9t1JA0M8U+rd6BXXZuaPapnnjjZdkyd/lOKTNZq/W11ORY+Z9vDZKY1oF7fOm9DbJpW2idVufa0oNVzqboglc0BBBAAAFvBaiB6q0nvSGAAAIIIIAAAggggAACCESIwMGyQOBRg5TxsdEhd53vWlTKvbq9BitnL94hsxdtt18r1heFXOd+k9I+RiaP7WF36WJSi77cZbd1saerxwT22x1hf7RLaC33f3eIpJjztH3w2RZ5bVb9NVOTXYtMxcWEjiOsa94igAACCByDAAHUY0DjEgQQQAABBBBAAAEEEEAAgcgXKDlQU6+0o8n4dLfcrTXZnleer3VIa6b0u89raPvG8b0kIS4w8XPqjI3y1CtfSllFIGh7+ejMOqfbayD3gZsHS1Z1DdYFXxTK09PWNPQx0iGp5t7dY2rwIg4igAACCDRagABqo6k4EQEEEEAAAQQQQAABBBBAwE8CzrR8HZNOmXe31bl7Zdm63XaXBkF/9PWBJiM0xn1Kg9v9eybJecMz7Dnbdx+Qtz7ZLLpQ1ZsfBzJJ25is129d0TukD91337cHSZ/MJLt/uVk06jf/WCmHjzAr333ve4rLQvrkDQIIIIBA0wWogdp0Q3pAAAEEEEAAAQQQQAABBBCIQIGNW/cH77pjclxw29n487S18rsfny6to1tJTnaK/P4nZ8hbszfLhi3FUlJaKT26tJOLz+rinB581fKoN3+1b/D9c2+tD9ZYfW3WJhk7MsNktMbKGQNT5dT+KbJ49R577g+u628/x7lwxmcFMqRfivPWvlaZxaSc850DHV0ZqHmuzFnnOK8IIIAAAk0TIIDaND+uRgABBBBAAAEEEEAAAQQQiFCB9VtqAqh9zIr3H84rCBnJlh2l8uAzy+S2yf2lY1KctEtoI9eO6xlyjvuNU1N17JldpKcJrmpblVskc5buDJ6m5/zzvVy5bVJ/u+/bV/SV234zz2aZnj4gNXiebtx1/YCQ9/pGF7z6xs8/FffCUX2zAhmrxSXlUmiyXGkIIIAAAt4KMIXfW096QwABBBBAAAEEEEAAAQQQiBCBrSZAunPPQXu3Zw1OE80cDW+a7Xn7b+bL2ybzdGPBfpNJeijkFK05OnvxNvnZU4uCwcthp3S051RVHZZn3lgXcr6+0UBtbnX2a9dOCdKpQ7w9p6i4vNa54TtamXt032dGWkIwWLt4TaDkQPg1vEcAAQQQaJoAGahN8+NqBBBAAAEEEEAAAQQQQACBCBaYs2yn6IJO7dvFSE7vZFm+tqjWaDTb82+vr7X7W5kIZkZavMSYeqXFZhp/YXUA1n3Rr/6xXBLMYlBlFYeksrJ2AVOtaXrXo5+bBaai7dT+svJAUPaWB+e6u2nU9tlDa7JW3ZmujbqYkxBAAAEEGiVABmqjmDgJAQQQQAABBBBAAAEEEEDAjwKfLNoeHNbZQzsFt+vbOHTosGzZXiq5Zvp/XcFTve6wiYeWHKiqM3jq9KtBVD3HCZ46+4/2ddTQdHuJZsIuXk0G6tH6cT4CCCDQGAECqI1R4hwEEEAAAQQQQAABBBBAAAFfCqzPL5aVGwKLOJ05yEzjj6B/Jev0/x4ZgVqr783Z0uRgrC8fMINCAAEEPBCIoP81eDBaukAAAQQQQAABBBBAAAEEEEAgTGDazE1mEafDkti2jV0sKuxws32bVb1Q1cHyKnnH1GilIYAAAggcHwFqoB4fV3pFAAEEEEAAAQQQQAABBBCIEAGd+n7VT/4juoZUpVn4KVLanCU75OoVhVJ56JAtGxAp9819IoAAApEmQAA10p4Y94sAAggggAACCCCAAAIIIOC5QFUEBU7dg6+oDCxA5d7HNgIIIICAtwJM4ffWk94QQAABBBBAAAEEEEAAAQQQQAABBBBAwEcCBFB99DAZCgIIIIAAAggggAACCCCAAAIIIIAAAgh4K0AA1VtPekMAAQQQQAABBBBAAAEEEEAAAQQQQAABHwkQQPXRw2QoCCCAAAIIIIAAAggggAACCCCAAAIIIOCtAAFUbz3pDQEEEEAAAQQQQAABBBBAAAEEEEAAAQR8JEAA1UcPk6EggAACCCCAAAIIIIAAAggggAACCCCAgLcCBFC99aQ3BBBAAAEEEEAAAQQQQAABBBBAAAEEEPCRAAFUHz1MhoIAAggggAACCCCAAAIIIIAAAggggAAC3goQQPXWk94QQAABBBBAAAEEEEAAAQQQQAABBBBAwEcCBFB99DAZCgIIIIAAAggggAACCCCAAAIIIIAAAgh4K0AA1VtPekMAAQQQQAABBBBAAAEEEEAAAQQQQAABHwkQQPXRw2QoCCCAAAIIIIAAAggggAACCCCAAAIIIOCtAAFUbz3pDQEEEEAAAQQQQAABBBBAAAEEEEAAAQR8JEAA1UcPk6EggAACCCCAAAIIIIAAAggggAACCCCAgLcCBFC99aQ3BBBAAAEEEEAAAQQQQAABBBBAAAEEEPCRAAFUHz1MhoIAAggggAACCCCAAAIIIIAAAggggAAC3goQQPXWk94QQAABBBBAAAEEEEAAAQQQQAABBBBAwEcCBFB99DAZCgIIIIAAAggggAACCCCAAAIIIIAAAgh4K0AA1VtPekMAAQQQQAABBBBAAAEEEEAAAQQQQAABHwkQQPXRw2QoCCCAAAIIIIAAAggggAACCCCAAAIIIOCtAAFUbz3pDQEEEEAAAQQQQAABBBBAAAEEEEAAAQR8JEAA1UcPk6EggAACCCCAAAIIIIAAAggggAACCCCAgLcCBFC99aQ3BBBAAAEEEEAAAQQQQAABBBBAAAEEEPCRAAFUHz1MhoIAAggggAACCCCAAAIIIIAAAggggAAC3goQQPXWk94QQAABBBBAAAEEEEAAAQQQQAABBBBAwEcCBFB99DAZCgIIIIAAAggggAACCCCAAAIIIIAAAgh4K0AA1VtPekMAAQQQQAABBBBAAAEEEEAAAQQQQAABHwkQQPXRw2QoCCCAAAIIIIAAAggggAACCCCAAAIIIOCtAAFUbz3pDQEEEEAAAQQQQAABBBBAAAEEEEAAAQR8JEAA1UcPk6EggAACCCCAAAIIIIAAAggggAACCCCAgLcCBFC99aQ3BBBAAAEEEEAAAQQQQAABBBBAAAEEEPCRAAFUHz1MhoIAAggggAACCCCAAAIIIIAAAggggAAC3goQQPXWk94QQAABBBBAAAEEEEAAAQQQQAABBBBAwEcCBFB99DAZCgIIIIAAAggggAACCCCAAAIIIIAAAgh4K9Da2+7oDQEEEEAAAQQQQAABBBBAINIFFk5/ItKHwP0jgAACCCDgmQAZqJ5R0hECCCCAAAIIIIAAAggggAACCCCAAAII+E0g6rBpfhsU40EAAQQQQAABBBBAAAEEEEAAAQQQQAABBLwQIAPVC0X6QAABBBBAAAEEEEAAAQQQQAABBBBAAAFfChBA9eVjZVAIIIAAAggggAACCCCAAAIIIIAAAggg4IUAAVQvFOkDAQQQQAABBBBAAAEEEEAAAQQQQAABBHwpQADVl4+VQSGAAAIIIIAAAggggAACCCCAAAIIIICAFwIEUL1QpA8EEEAAAQQQQAABBBBAAAEEEEAAAQQQ8KUAAVRfPlYGhQACCCCAAAIIIIAAAggggAACCCCAAAJeCBBA9UKRPhBAAAEEEEAAAQQQQAABBBBAAAEEEEDAlwIEUH35WBkUAggggAACCCCAAAIIIIAAAggggAACCHghQADVC0X6QAABBBBAAAEEEEAAAQQQQAABBBBAAAFfChBA9eVjZVAIIIAAAggggAACCCCAAAIIIIAAAggg4IUAAVQvFOkDAQQQQAABBBBAAAEEEEAAAQQQQAABBHwpQADVl4+VQSGAAAIIIIAAAggggAACCCCAAAIIIICAFwIEUL1QpA8EEEAAAQQQQAABBBBAAAEEEEAAAQQQ8KUAAVRfPlYGhQACCCCAAAIIIIAAAggggAACCCCAAAJeCBBA9UKRPhBAAAEEEEAAAQQQQAABBBBAAAEEEEDAlwIEUH35WBkUAggggAACCCCAAAIIIIAAAggggAACCHghQADVC0X6QAABBBBAAAEEEEAAAQQQQAABBBBAAAFfChBA9eVjZVAIIIAAAggggAACCCCAAAIIIIAAAggg4IUAAVQvFOkDAQQQQAABBBBAAAEEEEAAAQQQQAABBHwpQADVl4+VQSGAAAIIIIAAAggggAACCCCAAAIIIICAFwIEUL1QpA8EEEAAAQQQQAABBBBAAAEEEEAAAQQQ8KUAAVRfPlYGhQACCCCAAAIIIIAAAggggAACCCCAAAJeCBBA9UKRPhBAAAEEEEAAAQQQQAABBBBAAAEEEEDAlwIEUH35WBkUAggggAACCCCAAAIIIIAAAggggAACCHghQADVC0X6QAABBBBAAAEEEEAAAQQQQAABBBBAAAFfChBA9eVjZVAIIIAAAggggAACCCCAAAIIIIAAAggg4IUAAVQvFOkDAQQQQAABBBBAAAEEEEAAAQQQQAABBHwpQADVl4+VQSGAAAIIIIAAAggggAACCCCAAAIIIICAFwIEUL1QpA8EEEAAAQQQQAABBBBAAAEEEEAAAQQQ8KUAAVRfPlYGhQACCCCAAAIIIIAAAggggAACCCCAAAJeCBBA9UKRPhBAAAEEEEAAAQQQQAABBBBAAAEEEEDAlwIEUH35WBkUAggggAACCCCAAAIIIIAAAggggAACCHghQADVC0X6QAABBBBAAAEEEEAAAQQQQAABBBBAAAFfChBA9eVjZVAIIIAAAggggAACCCCAAAIIIIAAAggg4IUAAVQvFOkDAQQQQAABBBBAAAEEEEAAAQQQQAABBHwpQADVl4+VQSGAAAIIIIAAAggggAACCCCAAAIIIICAFwIEUL1QpA8EEEAAAQQQQAABBBBAAAEEEEAAAQQQ8KUAAVRfPlYGhQACCCCAAAIIIIAAAggggAACCCCAAAJeCBBA9UKRPhBAAAEEEEAAAQQQQAABBBBAAAEEEEDAlwIEUH35WBkUAggggAACCCCAAAIIIIAAAggggAACCHghQADVC0X6QAABBBBAAAEEEEAAAQQQQAABBBBAAAFfChBA9eVjZVAIIIAAAggggAACCCCAAAIIIIAAAggg4IUAAVQvFOkDAQQQQAABBBBAAAEEEEAAAQQQQAABBHwpQADVl4+VQSGAAAIIIIAAAggggAACCCCAAAIIIICAFwIEUL1QpA8EEEAAAQQQQAABBBBAAAEEEEAAAQQQ8KUAAVRfPlYGhQACCCCAAAIIIIAAAggggAACCCCAAAJeCBBA9UKRPhBAAAEEEEAAAQQQQAABBBBAAAEEEEDAlwIEUH35WBkUAggggAACCCCAAAIIIIAAAggggAACCHghQADVC0X6QAABBBBAAAEEEEAAAQQQQAABBBBAAAFfChBA9eVjZVAIIIAAAggggAACCCCAAAIIIIAAAggg4IUAAVQvFOkDAQQQQAABBBBAAAEEEEAAAQQQQAABBHwpQADVl4+VQSGAAAIIIIAAAggggAACCCCAAAIIIICAFwIEUL1QpA8EEEAAAQQQQAABBBBAAAEEEEAAAQQQ8KUAAVRfPlYGhQACCCCAAAIIIIAAAggggAACCCCAAAJeCBBA9UKRPhBAAAEEEEAAAQQQQAABBBBAAAEEEEDAlwIEUH35WBkUAggggAACCCCAAAIIIIAAAggggAACCHghQADVC0X6QAABBBBAAAEEEEAAAQQQQAABBBBAAAFfChBA9eVjZVAIIIAAAggggAACCCCAAAIIIIAAAggg4IUAAVQvFOkDAQQQQAABBBBAAAEEEEAAAQQQQAABBHwpQADVl4+VQSGAAAIIIIAAAggggAACCCCAAAIIIICAFwIEUL1QpA8EEEAAAQQQQAABBBBAAAEEEEAAAQQQ8KXA/wdVo9pcm5Y0cwAAAABJRU5ErkJggg==;" vertex="1" parent="1">
          <mxGeometry x="-155" y="309" width="1160" height="482.76" as="geometry" />
        </mxCell>
        <mxCell id="9qxpU1BUqiCfkzWaezKQ-2" value="" style="rounded=1;whiteSpace=wrap;html=1;fillOpacity=60;" vertex="1" parent="1">
          <mxGeometry x="110" y="500" width="120" height="100" as="geometry" />
        </mxCell>
        <mxCell id="9qxpU1BUqiCfkzWaezKQ-3" value="" style="rounded=1;whiteSpace=wrap;html=1;fillOpacity=60;" vertex="1" parent="1">
          <mxGeometry x="365" y="480" width="120" height="140" as="geometry" />
        </mxCell>
        <mxCell id="9qxpU1BUqiCfkzWaezKQ-4" value="" style="rounded=1;whiteSpace=wrap;html=1;fillOpacity=60;" vertex="1" parent="1">
          <mxGeometry x="630" y="370" width="120" height="100" as="geometry" />
        </mxCell>
        <mxCell id="9qxpU1BUqiCfkzWaezKQ-5" value="" style="rounded=1;whiteSpace=wrap;html=1;fillOpacity=60;" vertex="1" parent="1">
          <mxGeometry x="630" y="620" width="120" height="100" as="geometry" />
        </mxCell>
        <mxCell id="9qxpU1BUqiCfkzWaezKQ-6" value="&lt;h2&gt;&lt;b&gt;node01&lt;/b&gt;&lt;/h2&gt;" style="text;html=1;whiteSpace=wrap;strokeColor=none;fillColor=none;align=center;verticalAlign=middle;rounded=0;" vertex="1" parent="1">
          <mxGeometry x="130" y="530" width="60" height="30" as="geometry" />
        </mxCell>
        <mxCell id="9qxpU1BUqiCfkzWaezKQ-7" value="&lt;h2&gt;&lt;b&gt;node04&lt;/b&gt;&lt;/h2&gt;" style="text;html=1;whiteSpace=wrap;strokeColor=none;fillColor=none;align=center;verticalAlign=middle;rounded=0;" vertex="1" parent="1">
          <mxGeometry x="380" y="530" width="60" height="30" as="geometry" />
        </mxCell>
        <mxCell id="9qxpU1BUqiCfkzWaezKQ-8" value="&lt;h2&gt;&lt;b&gt;node02&lt;/b&gt;&lt;/h2&gt;" style="text;html=1;whiteSpace=wrap;strokeColor=none;fillColor=none;align=center;verticalAlign=middle;rounded=0;" vertex="1" parent="1">
          <mxGeometry x="640" y="410" width="60" height="30" as="geometry" />
        </mxCell>
        <mxCell id="9qxpU1BUqiCfkzWaezKQ-9" value="&lt;h2&gt;&lt;b&gt;node03&lt;/b&gt;&lt;/h2&gt;" style="text;html=1;whiteSpace=wrap;strokeColor=none;fillColor=none;align=center;verticalAlign=middle;rounded=0;" vertex="1" parent="1">
          <mxGeometry x="640" y="655" width="60" height="30" as="geometry" />
        </mxCell>
      </root>
    </mxGraphModel>
  </diagram>
</mxfile>
